<?xml version="1.0" encoding="UTF-8"?>
<svg width="20px" height="20px" viewBox="0 0 20 20" version="1.1" xmlns="http://www.w3.org/2000/svg" xmlns:xlink="http://www.w3.org/1999/xlink">
    <!-- Generator: Sketch 46.2 (44496) - http://www.bohemiancoding.com/sketch -->
    <title>Group 92</title>
    <desc>Created with Sketch.</desc>
    <defs>
        <linearGradient x1="0%" y1="0%" x2="100%" y2="100%" id="linearGradient-1">
            <stop stop-color="#FBD249" offset="0%"></stop>
            <stop stop-color="#EA8D05" offset="100%"></stop>
        </linearGradient>
    </defs>
    <g id="live" stroke="none" stroke-width="1" fill="none" fill-rule="evenodd">
        <g id="Group-92" transform="translate(-5.000000, -5.000000)">
            <path d="M5.00007241,12.8097951 C5.01355831,9.487847 7.06387949,6.60744568 10.226322,5.46812 C13.297386,4.36181152 16.7890705,5.26071623 18.8805469,7.6963155 C21.0838632,10.2623559 21.5037861,13.891922 19.7950301,16.7593025 C19.3246514,17.5486924 19.371387,17.9369932 20.0256854,18.5396732 C21.4775119,19.8773346 22.8168008,21.3366015 24.2516536,22.6937942 C24.7680704,23.1820766 24.7887643,23.4480743 24.2656046,23.9589107 C22.8553984,25.3363322 22.8835328,25.3651641 21.4540278,23.9365892 C20.2209984,22.7042573 18.9668101,21.4919218 17.7658678,20.2288979 C17.3289713,19.7694474 17.030654,19.695275 16.4147206,19.9947549 C11.0126893,22.6214818 4.97589081,18.8017181 5.00007241,12.8097951 Z M12.9332901,18.9575035 C16.2236161,18.9354145 18.9875272,16.1305807 18.9438143,12.8581584 C18.8996364,9.56155439 16.0850369,6.81391939 12.8170324,6.87716359 C9.55716585,6.94040779 6.86533455,9.67176671 6.86533455,12.9165197 C6.86556707,16.2010329 9.65644994,18.9795925 12.9332901,18.9575035 Z" id="Combined-Shape" fill="url(#linearGradient-1)"></path>
            <rect id="Rectangle-24-Copy-6" x="0" y="0" width="30" height="30"></rect>
        </g>
    </g>
</svg>