<?xml version="1.0" encoding="UTF-8"?>
<svg width="22px" height="22px" viewBox="0 0 22 22" version="1.1" xmlns="http://www.w3.org/2000/svg" xmlns:xlink="http://www.w3.org/1999/xlink">
    <!-- Generator: Sketch 46.2 (44496) - http://www.bohemiancoding.com/sketch -->
    <title>Group 60</title>
    <desc>Created with Sketch.</desc>
    <defs></defs>
    <g id="live" stroke="none" stroke-width="1" fill="none" fill-rule="evenodd">
        <g id="Group-60" transform="translate(-5.000000, -4.000000)">
            <path d="M6.00007241,12.8097951 C6.01355831,9.487847 8.06387949,6.60744568 11.226322,5.46812 C14.297386,4.36181152 17.7890705,5.26071623 19.8805469,7.6963155 C22.0838632,10.2623559 22.5037861,13.891922 20.7950301,16.7593025 C20.3246514,17.5486924 20.371387,17.9369932 21.0256854,18.5396732 C22.4775119,19.8773346 23.8168008,21.3366015 25.2516536,22.6937942 C25.7680704,23.1820766 25.7887643,23.4480743 25.2656046,23.9589107 C23.8553984,25.3363322 23.8835328,25.3651641 22.4540278,23.9365892 C21.2209984,22.7042573 19.9668101,21.4919218 18.7658678,20.2288979 C18.3289713,19.7694474 18.030654,19.695275 17.4147206,19.9947549 C12.0126893,22.6214818 5.97589081,18.8017181 6.00007241,12.8097951 Z M13.9332901,18.9575035 C17.2236161,18.9354145 19.9875272,16.1305807 19.9438143,12.8581584 C19.8996364,9.56155439 17.0850369,6.81391939 13.8170324,6.87716359 C10.5571658,6.94040779 7.86533455,9.67176671 7.86533455,12.9165197 C7.86556707,16.2010329 10.6564499,18.9795925 13.9332901,18.9575035 Z" id="Combined-Shape" stroke="#4A4A4A"></path>
            <rect id="Rectangle-24-Copy-2" x="0" y="0" width="30" height="30"></rect>
        </g>
    </g>
</svg>