<?xml version="1.0" encoding="UTF-8"?>
<svg width="21px" height="21px" viewBox="0 0 21 21" version="1.1" xmlns="http://www.w3.org/2000/svg" xmlns:xlink="http://www.w3.org/1999/xlink">
    <!-- Generator: Sketch 46.2 (44496) - http://www.bohemiancoding.com/sketch -->
    <title>Group 59</title>
    <desc>Created with Sketch.</desc>
    <defs></defs>
    <g id="live" stroke="none" stroke-width="1" fill="none" fill-rule="evenodd">
        <g id="Group-59" transform="translate(-4.000000, -5.000000)">
            <g id="Group-61" transform="translate(5.000000, 6.000000)">
                <path d="M9.93790802,18.8186243 C9.74385022,19.0043793 9.42622711,19.0043793 9.23233211,18.8186243 L7.98984127,17.6295319 C7.79578348,17.443777 7.42590151,17.3526089 7.16770045,17.4268457 L5.515116,17.902385 C5.25691494,17.9766219 4.97575906,17.8291249 4.89028897,17.5745055 L4.34279202,15.9442247 C4.25715914,15.6896052 3.97193325,15.4369394 3.70884819,15.3827269 L2.0245177,15.035637 C1.76143264,14.9815873 1.58105006,14.7201302 1.6237037,14.4549288 L1.89655678,12.7570859 C1.93921042,12.4917216 1.80408628,12.1355149 1.59635328,11.9652259 L0.266113146,10.8752788 C0.0582173382,10.7049898 0.0201221001,10.3898087 0.180968661,10.1747497 L1.21165649,8.79811152 C1.37266585,8.5830525 1.4185755,8.20486772 1.31373219,7.95757428 L0.642507123,6.37417989 C0.537663818,6.12688645 0.65032153,5.82993895 0.892730973,5.71435083 L2.44519333,4.97442409 C2.68760277,4.85883598 2.90396418,4.54528287 2.92610501,4.2774766 L3.06757835,2.56351648 C3.08971917,2.29587302 3.32740741,2.08537241 3.59570208,2.09562882 L5.31422059,2.16188848 C5.58267806,2.17230769 5.92,1.99518112 6.06407814,1.76840049 L6.98568987,0.316548637 C7.12960521,0.0897680098 7.43794872,0.0137403337 7.67091575,0.147562068 L9.16167684,1.00486772 C9.39464387,1.13868946 9.77559626,1.13868946 10.0085633,1.00486772 L11.4993244,0.147562068 C11.7321286,0.0137403337 12.0404721,0.0897680098 12.1845503,0.316548637 L13.106162,1.76840049 C13.2500773,1.99518112 13.5875621,2.17230769 13.8560195,2.16188848 L15.5745381,2.09562882 C15.8428327,2.08537241 16.080521,2.29587302 16.1026618,2.56351648 L16.2439723,4.2774766 C16.2661131,4.54528287 16.4826374,4.85883598 16.7250468,4.97442409 L18.2775092,5.71435083 C18.5199186,5.82993895 18.6325763,6.12688645 18.527733,6.37417989 L17.8563451,7.95757428 C17.7515018,8.20486772 17.7974115,8.5830525 17.9584208,8.79811152 L18.9891087,10.1747497 C19.150118,10.3898087 19.11186,10.7049898 18.904127,10.8752788 L17.5738869,11.9652259 C17.3661538,12.1355149 17.2310297,12.4917216 17.2736834,12.7570859 L17.5465364,14.4549288 C17.5891901,14.7201302 17.4088075,14.9815873 17.1455596,15.035637 L15.4612291,15.3827269 C15.1981441,15.4369394 14.9129182,15.6896052 14.8274481,15.9442247 L14.2799512,17.5745055 C14.1944811,17.8291249 13.9133252,17.9766219 13.6551241,17.902385 L12.0025397,17.4268457 C11.7443386,17.3526089 11.3742939,17.443777 11.1802361,17.6295319 L9.93790802,18.8186243 Z" id="Combined-Shape" stroke="#4A4A4A"></path>
                <polygon id="Fill-3" fill="#4A4A4A" points="3.90746439 10.8961823 3.90746439 8.14323158 4.53505902 8.14323158 5.59781848 9.57017501 5.61312169 9.57017501 5.61312169 8.14323158 6.37616606 8.14323158 6.37616606 10.8961823 5.75606024 10.8961823 4.68581197 9.44628409 4.67050875 9.44628409 4.67050875 10.8961823"></polygon>
                <polygon id="Fill-5" fill="#4A4A4A" points="8.69989418 10.8961823 6.75768824 10.8961823 6.75768824 8.14323158 8.69989418 8.14323158 8.69989418 8.78612943 7.56664225 8.78612943 7.56664225 9.23073667 8.62923891 9.23073667 8.62923891 9.81063085 7.56664225 9.81063085 7.56664225 10.2532845 8.69989418 10.2532845"></polygon>
                <polygon id="Fill-5" fill="#4A4A4A" points="10.4360114 10.8961823 9.67296703 10.8961823 8.96315832 8.14323158 9.79881156 8.14323158 10.1154579 9.88307692 10.1307611 9.88307692 10.5410175 8.14323158 11.1666585 8.14323158 11.5769149 9.88307692 11.5922182 9.88307692 11.9088645 8.14323158 12.7445177 8.14323158 12.034709 10.8961823 11.2716646 10.8961823 10.8614082 9.32027676 10.8462678 9.32027676"></polygon>
                <path d="M13.6430444,10.0853561 C13.6659992,10.2418071 13.8566382,10.3448596 14.0741392,10.3448596 C14.3165486,10.3448596 14.465348,10.2475051 14.465348,10.114009 C14.465348,9.98621083 14.3642491,9.93085877 14.0684412,9.87746032 L13.7040944,9.81250305 C13.1985999,9.72475376 12.9237932,9.43480667 12.9237932,9.00354904 C12.9237932,8.44660969 13.4007977,8.09544974 14.0570452,8.09544974 C14.7896459,8.09544974 15.1999023,8.43130647 15.2036467,8.96545381 L14.465348,8.96545381 C14.45965,8.79369963 14.2898494,8.69260073 14.0723484,8.69260073 C13.8605454,8.69260073 13.7270492,8.78035002 13.7270492,8.91775336 C13.7270492,9.04945869 13.8395442,9.11816036 14.1010012,9.1639072 L14.4786976,9.22870167 C15.0128449,9.32231176 15.2627432,9.57595442 15.2627432,10.0223525 C15.2627432,10.5851526 14.7915995,10.9438014 14.0589988,10.9438014 C13.3207,10.9438014 12.88,10.6348067 12.8780464,10.0853561 L13.6430444,10.0853561 Z" id="Fill-9" fill="#4A4A4A"></path>
            </g>
            <rect id="Rectangle-24-Copy" x="0" y="0" width="30" height="30"></rect>
        </g>
    </g>
</svg>