<?xml version="1.0" encoding="UTF-8"?>
<svg width="20px" height="20px" viewBox="0 0 20 20" version="1.1" xmlns="http://www.w3.org/2000/svg" xmlns:xlink="http://www.w3.org/1999/xlink">
    <!-- Generator: Sketch 46.2 (44496) - http://www.bohemiancoding.com/sketch -->
    <title>Group 91</title>
    <desc>Created with Sketch.</desc>
    <defs>
        <linearGradient x1="0%" y1="0%" x2="100%" y2="100%" id="linearGradient-1">
            <stop stop-color="#FBD249" offset="0%"></stop>
            <stop stop-color="#EA8D05" offset="100%"></stop>
        </linearGradient>
    </defs>
    <g id="live" stroke="none" stroke-width="1" fill="none" fill-rule="evenodd">
        <g id="Group-91" transform="translate(-5.000000, -5.000000)">
            <path d="M19.7074694,16.4296924 C18.9306151,16.4296924 18.4669007,16.1045613 18.4648451,15.5264172 L19.2697929,15.5264172 C19.2939465,15.6910384 19.4947124,15.7993013 19.7235718,15.7993013 C19.9784691,15.7993013 20.1350391,15.697034 20.1350391,15.5563951 C20.1350391,15.4219231 20.0286606,15.3636804 19.7175762,15.3074934 L19.3340312,15.2393152 C18.8021386,15.1469834 18.5129809,14.8417234 18.5129809,14.3881158 C18.5129809,13.8019205 19.0148956,13.4325935 19.7054138,13.4325935 C20.4762726,13.4325935 20.9079535,13.7858181 20.9118934,14.3480311 L20.1350391,14.3480311 C20.1290435,14.1673076 19.9503756,14.0609291 19.7215162,14.0609291 C19.4986523,14.0609291 19.3581847,14.1532608 19.3581847,14.2978397 C19.3581847,14.4362516 19.4765544,14.5085411 19.7516653,14.5566769 L20.1490858,14.6250264 C20.7111275,14.7233537 20.9742473,14.9904134 20.9742473,15.4601234 C20.9742473,16.0523142 20.4783282,16.4296924 19.7074694,16.4296924 L19.7074694,16.4296924 Z M17.577501,16.379501 L16.7746087,16.379501 L16.3429278,14.7212981 L16.3269968,14.7212981 L15.8953158,16.379501 L15.0924236,16.379501 L14.3455471,13.482785 L15.22484,13.482785 L15.5580223,15.3134889 L15.5741247,15.3134889 L16.0058056,13.482785 L16.664119,13.482785 L17.0957999,15.3134889 L17.1119023,15.3134889 L17.4450846,13.482785 L18.3243775,13.482785 L17.577501,16.379501 Z M14.0685519,14.1592564 L12.876119,14.1592564 L12.876119,14.627082 L13.9942068,14.627082 L13.9942068,15.2372596 L12.876119,15.2372596 L12.876119,15.7030296 L14.0685519,15.7030296 L14.0685519,16.379501 L12.0249196,16.379501 L12.0249196,13.482785 L14.0685519,13.482785 L14.0685519,14.1592564 Z M11.6235591,16.379501 L10.97107,16.379501 L9.84493101,14.8538858 L9.82882862,14.8538858 L9.82882862,16.379501 L9.02593639,16.379501 L9.02593639,13.482785 L9.6863054,13.482785 L10.8043932,14.9842466 L10.8204956,14.9842466 L10.8204956,13.482785 L11.6235591,13.482785 L11.6235591,16.379501 Z M24.8951776,15.6202907 L23.810665,14.1717614 C23.6412474,13.9456429 23.5929402,13.5475371 23.7032587,13.2873295 L24.4097079,11.621418 C24.5198551,11.3612104 24.4014854,11.0487556 24.1464168,10.9271312 L22.5127101,10.1485639 C22.2576415,10.0269395 22.0299812,9.69684062 22.0066842,9.41522022 L21.8578228,7.6117533 C21.8345257,7.33013289 21.5845962,7.10846817 21.3021193,7.1194315 L19.4938559,7.18915139 C19.2115503,7.19994341 18.8564413,7.01356689 18.7050104,6.77494328 L17.7350988,5.2472725 C17.5836679,5.00864888 17.259222,4.92865087 17.0142602,5.06963237 L15.4454769,5.97153714 C15.2005151,6.11251864 14.7994973,6.11251864 14.5545355,5.97153714 L12.9857522,5.06963237 C12.7407905,4.92865087 12.4163446,5.00864888 12.2649136,5.2472725 L11.295002,6.77494328 C11.1435711,7.01356689 10.7886334,7.19994341 10.5061565,7.18915139 L8.69789316,7.1194315 C8.41541624,7.10846817 8.1653154,7.33013289 8.14201833,7.6117533 L7.99332824,9.41522022 C7.97003118,9.69684062 7.74237089,10.0269395 7.48713098,10.1485639 L5.8537669,10.9271312 C5.59852699,11.0487556 5.48015735,11.3612104 5.5904758,11.621418 L6.29675374,13.2873295 C6.40707219,13.5475371 6.35876504,13.9456429 6.18934742,14.1717614 L5.10483478,15.6202907 C4.93541715,15.8465806 4.97567311,16.1783925 5.19425439,16.3575743 L6.59396262,17.5044409 C6.81271521,17.6834514 6.95489583,18.0584314 6.91001472,18.3374822 L6.62291265,20.1241616 C6.57803154,20.4032124 6.7678341,20.6781521 7.04465805,20.7351956 L8.81694801,21.1002401 C9.09377196,21.1572836 9.39389298,21.4231442 9.4838265,21.6910605 L10.059915,23.4066495 C10.1500198,23.6743944 10.4458582,23.8297653 10.7173718,23.7516516 L12.4564292,23.2512786 C12.7279428,23.1729936 13.1173121,23.2689227 13.3215041,23.4643783 L14.6288805,24.715739 C14.8329012,24.9110232 15.1671113,24.9110232 15.3713032,24.715739 L16.6785084,23.4643783 C16.8827003,23.2689227 17.2720696,23.1729936 17.5437545,23.2512786 L19.2826406,23.7516516 C19.5541542,23.8297653 19.8501639,23.6743944 19.9400975,23.4066495 L20.5161859,21.6910605 C20.6061194,21.4231442 20.9062405,21.1572836 21.1830644,21.1002401 L22.9553544,20.7351956 C23.2323496,20.6781521 23.4219809,20.4032124 23.3770998,20.1241616 L23.090169,18.3374822 C23.0452879,18.0584314 23.1874685,17.6834514 23.4060498,17.5044409 L24.8055867,16.3575743 C25.0243393,16.1783925 25.0645953,15.8465806 24.8951776,15.6202907 L24.8951776,15.6202907 Z" id="Fill-11" fill="url(#linearGradient-1)"></path>
            <rect id="Rectangle-24-Copy-4" x="0" y="0" width="30" height="30"></rect>
        </g>
    </g>
</svg>