<?xml version="1.0" encoding="UTF-8"?>
<svg width="25px" height="25px" viewBox="0 0 25 25" version="1.1" xmlns="http://www.w3.org/2000/svg" xmlns:xlink="http://www.w3.org/1999/xlink">
    <!-- Generator: Sketch 46.2 (44496) - http://www.bohemiancoding.com/sketch -->
    <title>Group 93</title>
    <desc>Created with Sketch.</desc>
    <defs>
        <linearGradient x1="0%" y1="0%" x2="100%" y2="100%" id="linearGradient-1">
            <stop stop-color="#FBD249" offset="0%"></stop>
            <stop stop-color="#EA8D05" offset="100%"></stop>
        </linearGradient>
    </defs>
    <g id="live" stroke="none" stroke-width="1" fill="none" fill-rule="evenodd">
        <g id="Group-93" transform="translate(-2.000000, -3.000000)">
            <g id="Group-61-Copy">
                <rect id="Rectangle-17-Copy-7" x="0" y="0" width="30" height="30"></rect>
                <g id="Page-1-Copy" transform="translate(2.000000, 3.000000)" fill="url(#linearGradient-1)">
                    <path d="M12.500024,2.27891827 C6.85507212,2.27891827 2.27887019,6.85512019 2.27887019,12.5000721 C2.27887019,18.145024 6.85507212,22.721226 12.500024,22.721226 C18.144976,22.721226 22.7211779,18.145024 22.7211779,12.5000721 C22.7211779,6.85512019 18.144976,2.27891827 12.500024,2.27891827 M12.500024,4.68276442 C16.8103606,4.68276442 20.3173317,8.18949519 20.3173317,12.5000721 C20.3173317,16.8104087 16.8103606,20.3173798 12.500024,20.3173798 C8.18944712,20.3173798 4.68271635,16.8104087 4.68271635,12.5000721 C4.68271635,8.18949519 8.18944712,4.68276442 12.500024,4.68276442" id="Fill-1"></path>
                    <path d="M12.6998077,-4.80769231e-05 C13.0745673,-4.80769231e-05 13.3810577,0.306682692 13.3810577,0.681442308 L13.3810577,6.05091346 C13.3810577,6.42567308 13.0745673,6.73216346 12.6998077,6.73216346 L12.3002885,6.73216346 C11.9255288,6.73216346 11.6187981,6.42567308 11.6187981,6.05091346 L11.6187981,0.681442308 C11.6187981,0.306682692 11.9255288,-4.80769231e-05 12.3002885,-4.80769231e-05 L12.6998077,-4.80769231e-05 Z M6.05084135,11.6188221 C6.42560096,11.6188221 6.73209135,11.9255529 6.73209135,12.3000721 L6.73209135,12.6998317 C6.73209135,13.0745913 6.42560096,13.3813221 6.05084135,13.3813221 L0.681370192,13.3813221 C0.306610577,13.3813221 0.000120192308,13.0745913 0.000120192308,12.6998317 L0.000120192308,12.3000721 C0.000120192308,11.9255529 0.306610577,11.6188221 0.681370192,11.6188221 L6.05084135,11.6188221 Z M12.6998077,18.2677885 C13.0745673,18.2677885 13.3810577,18.5742788 13.3810577,18.9490385 L13.3810577,24.3185096 C13.3810577,24.6932692 13.0745673,25 12.6998077,25 L12.3002885,25 C11.9255288,25 11.6187981,24.6932692 11.6187981,24.3185096 L11.6187981,18.9490385 C11.6187981,18.5742788 11.9255288,18.2677885 12.3002885,18.2677885 L12.6998077,18.2677885 Z M24.3185577,11.6188221 C24.6933173,11.6188221 25.0000481,11.9255529 25.0000481,12.3000721 L25.0000481,12.6998317 C25.0000481,13.0745913 24.6933173,13.3813221 24.3185577,13.3813221 L18.9490865,13.3813221 C18.5743269,13.3813221 18.2678365,13.0745913 18.2678365,12.6998317 L18.2678365,12.3000721 C18.2678365,11.9255529 18.5743269,11.6188221 18.9490865,11.6188221 L24.3185577,11.6188221 Z M12.5,17.5 C9.73857625,17.5 7.5,15.2614237 7.5,12.5 C7.5,9.73857625 9.73857625,7.5 12.5,7.5 C15.2614237,7.5 17.5,9.73857625 17.5,12.5 C17.5,15.2614237 15.2614237,17.5 12.5,17.5 Z" id="Combined-Shape"></path>
                </g>
            </g>
            <rect id="Rectangle-24-Copy-5" x="0" y="0" width="30" height="30"></rect>
        </g>
    </g>
</svg>