<?xml version="1.0" encoding="UTF-8"?>
<svg width="22px" height="22px" viewBox="0 0 22 22" version="1.1" xmlns="http://www.w3.org/2000/svg" xmlns:xlink="http://www.w3.org/1999/xlink">
    <!-- Generator: Sketch 46.2 (44496) - http://www.bohemiancoding.com/sketch -->
    <title>Group 57</title>
    <desc>Created with Sketch.</desc>
    <defs></defs>
    <g id="live" stroke="none" stroke-width="1" fill="none" fill-rule="evenodd">
        <g id="Group-57" transform="translate(-4.000000, -4.000000)">
            <g id="Group-94" transform="translate(5.000000, 5.000000)" stroke="#3F3A3A">
                <path d="M14.2098889,9.30628889 C13.1692222,8.76762222 12.2134444,8.35362222 11.3558889,7.79006667 C11.0034444,7.55873333 10.621,6.97606667 10.6661111,6.60317778 C10.8972222,4.7014 11.2158889,2.80584444 11.6267778,0.934955556 C11.7007778,0.598955556 12.2772222,0.0251777778 12.7356667,0.121844444 C13.2167778,0.223622222 13.5012222,0.992288889 13.4563333,1.37762222 C13.2867778,2.83673333 12.9372222,4.27495556 12.6285556,5.85628889 C13.8858889,6.48762222 15.1585556,7.13006667 16.4338889,7.76695556 C18.2125556,8.65495556 18.6547778,9.56917778 17.957,11.4405111 C16.7618889,14.6447333 14.7967778,17.1560667 11.4325556,18.3625111 C6.54811111,20.1140667 8.30877778,20.2376222 3.88455556,17.6698444 C2.79877778,17.0398444 1.69077778,16.4325111 0.683444444,15.6916222 C0.339666667,15.4389556 0.0216666667,14.7307333 0.134111111,14.3680667 C0.346777778,13.6831778 1.00722222,13.7174 1.61788889,14.0138444 C3.31055556,14.8354 5.01922222,15.6249556 6.69744444,16.4742889 C7.28966667,16.7740667 7.74411111,16.7520667 8.31722222,16.3976222 C11.0521111,14.7071778 13.273,12.6129556 14.2098889,9.30628889 Z" id="Stroke-13"></path>
                <path d="M10.2246444,13.5648459 C9.34264444,14.1521792 8.50375556,14.8317348 7.55397778,15.2730681 C7.25308889,15.4124014 6.58108889,15.0055126 6.20931111,14.6935126 C5.04775556,13.7177348 3.90086667,12.7130681 2.85731111,11.615957 C2.58642222,11.3312903 2.3282,10.5450681 2.65753333,10.1790681 C2.98686667,9.81306811 3.72464444,10.0261792 4.11531111,10.2270681 C4.7602,10.5586237 5.29108889,11.1150681 5.86108889,11.5875126 C7.07642222,12.5946237 8.20908889,13.7964014 10.1275333,13.0815126 C10.1599778,13.2426237 10.1922,13.4037348 10.2246444,13.5648459 Z" id="Stroke-15"></path>
                <path d="M17.6020222,6.71662748 C16.3573556,6.64573859 15.4575778,5.59840525 15.5420222,4.3188497 C15.6240222,3.08018303 16.6871333,2.18862748 17.9651333,2.28751637 C19.1569111,2.37973859 20.0302444,3.39707192 19.9729111,4.62662748 C19.9146889,5.87462748 18.8771333,6.78929414 17.6020222,6.71662748 Z" id="Stroke-17"></path>
            </g>
            <rect id="Rectangle-17-Copy-2" x="0" y="0" width="30" height="30"></rect>
        </g>
    </g>
</svg>