<?xml version="1.0" encoding="UTF-8"?>
<svg width="20px" height="20px" viewBox="0 0 20 20" version="1.1" xmlns="http://www.w3.org/2000/svg" xmlns:xlink="http://www.w3.org/1999/xlink">
    <!-- Generator: Sketch 46.2 (44496) - http://www.bohemiancoding.com/sketch -->
    <title>Group 89</title>
    <desc>Created with Sketch.</desc>
    <defs></defs>
    <g id="live" stroke="none" stroke-width="1" fill="none" fill-rule="evenodd">
        <g id="Group-89" transform="translate(-5.000000, -5.000000)">
            <path d="M9.55594518,5 C10.3243888,5.54305368 11.0650369,6.09272536 11.0720331,7.17977815 C11.0788402,8.27193626 10.3847071,9.24156693 9.36459061,9.49683241 C8.30022808,9.76325395 7.17516909,9.2079097 6.71417853,8.18854953 C6.27134019,7.20965367 6.58522219,6.0791112 7.45993192,5.41371917 C7.65053015,5.26869056 7.94399091,5.26887964 8.04326083,5 L9.55594518,5 Z M5.01827029,14.9947593 C5.01883754,14.3970599 5.00673607,13.7989824 5.02129566,13.2016611 C5.05892368,11.6360328 6.34546172,10.3944971 7.89804313,10.2857729 C11.4174924,10.0392054 12.8692912,11.214183 12.5879319,14.7990558 C12.5412278,15.3931626 12.5508711,15.9959673 12.5886882,16.5913977 C12.6423885,17.4379337 12.3508186,18.0740174 11.5589284,18.411346 C11.1206281,18.5981626 11.1034213,18.946269 11.0620115,19.3314363 C10.890511,20.9233475 10.6793024,22.511477 10.5327611,24.1056572 C10.4919186,24.5488737 10.3758201,24.7139454 9.92352748,24.6734811 C9.48673987,24.6341513 9.04352335,24.6649722 8.60295404,24.6649722 C7.06360862,24.6649722 7.07117204,24.6642159 6.92897971,23.1581495 C6.80210331,21.8137513 6.65159122,20.4720003 6.52168945,19.1279802 C6.49238119,18.8258215 6.41580155,18.5605345 6.10872662,18.4514322 C5.17237501,18.1186416 4.94320333,17.4101381 5.01108504,16.5044183 C5.04871306,16.0039089 5.01789212,15.4981051 5.01827029,14.9947593 Z M21.2792489,5 C22.0476926,5.54305368 22.7883407,6.09272536 22.7953368,7.17977815 C22.8021439,8.27193626 22.1080109,9.24156693 21.0878944,9.49683241 C20.0235318,9.76325395 18.8984728,9.2079097 18.4374823,8.18854953 C17.9946439,7.20965367 18.3085259,6.0791112 19.1832357,5.41371917 C19.3738339,5.26869056 19.6672947,5.26887964 19.7665646,5 L21.2792489,5 Z M20.4555167,24.6649155 C18.9061497,24.6649155 18.9243019,24.663781 18.8233302,23.1178176 C18.7577176,22.1143406 18.5943476,21.1165362 18.541971,20.1130592 C18.5098264,19.4996657 18.2184456,19.2912934 17.6634795,19.1385123 C15.9233253,18.6599368 15.9297542,18.633843 16.4121114,16.8917979 C16.8381211,15.3530197 17.2643199,13.8142416 17.6925987,12.2762197 C18.0970527,10.8232864 18.8046108,10.2981959 20.3554904,10.2944141 C22.1994526,10.2898761 22.9397225,10.7586192 23.3439874,12.2274357 C23.8760742,14.160079 24.3667511,16.1046348 24.9275789,18.0283911 C25.0686367,18.512261 25.0389503,18.7614757 24.516696,18.8021291 C22.7820252,18.936758 22.2270591,19.9517692 22.3715205,21.5641017 C22.4127411,22.0239577 22.2516402,22.4985624 22.2244119,22.9686291 C22.1264656,24.6645373 22.1330836,24.6649155 20.4555167,24.6649155 Z M14.7247876,15.1954925 C15.0953953,15.457376 15.4525779,15.722474 15.4557923,16.2468082 C15.4591959,16.7734114 15.1243254,17.24102 14.6325139,17.3643037 C14.1191466,17.4925037 13.5766602,17.2247586 13.3541065,16.7333253 C13.1406289,16.2609896 13.2920864,15.715856 13.7137472,15.3949778 C13.8058319,15.3252052 13.9472679,15.3252052 13.9952956,15.1954925 L14.7247876,15.1954925 Z M14.3274054,24.6793049 C13.5801394,24.6793049 13.5890264,24.6787377 13.5402423,23.9331734 C13.508665,23.4491144 13.4298164,22.9680808 13.4044789,22.4840218 C13.389163,22.1881029 13.2484833,22.0876985 12.9809273,22.0141442 C12.1415765,21.7834598 12.144791,21.770602 12.3773662,20.9304949 C12.5827131,20.1883342 12.7882491,19.4463625 12.9949196,18.7045799 C13.1900559,18.0038289 13.5311662,17.7506433 14.2791886,17.7489416 C15.1684579,17.7466725 15.5254514,17.9726298 15.7203986,18.6809442 C15.9771768,19.6131359 16.2137228,20.5508112 16.4841152,21.4786539 C16.552375,21.7121746 16.5378155,21.8322439 16.2859535,21.8519088 C15.4494391,21.9167651 15.181883,22.4063076 15.2514665,23.1838274 C15.2713205,23.4058138 15.1936063,23.6346073 15.1805594,23.8613209 C15.133288,24.6791158 15.1365025,24.6793049 14.3274054,24.6793049 Z" id="Combined-Shape" fill="#9B9B9B"></path>
            <rect id="Rectangle-23-Copy" x="0" y="0" width="30" height="30"></rect>
        </g>
    </g>
</svg>