<?xml version="1.0" encoding="UTF-8"?>
<svg width="20px" height="20px" viewBox="0 0 20 20" version="1.1" xmlns="http://www.w3.org/2000/svg" xmlns:xlink="http://www.w3.org/1999/xlink">
    <!-- Generator: Sketch 46.2 (44496) - http://www.bohemiancoding.com/sketch -->
    <title>Group 71</title>
    <desc>Created with Sketch.</desc>
    <defs></defs>
    <g id="live" stroke="none" stroke-width="1" fill="none" fill-rule="evenodd">
        <g id="Group-71" transform="translate(-5.000000, -5.000000)">
            <path d="M22.2144,16.323081 C22.1544,16.7081993 21.9638,16.7029344 21.6866,16.7009844 C21.054,16.6966945 20.4162,16.6512603 19.79,16.7128792 C19.11,16.780153 18.9728,16.5217825 18.9848,15.9071533 C19.0144,14.3604404 18.9832,14.3598554 20.6122,14.3598554 C22.2994,14.3598554 22.4816,14.6059411 22.2144,16.323081 L22.2144,16.323081 Z M22.218,19.5430596 C22.1646,20.9883742 22.2058,20.9897392 20.6848,20.9897392 C18.811,20.9897392 18.828,20.9911042 18.9866,19.122062 C19.0198,18.7305088 19.1456,18.6296956 19.5166,18.6437353 C20.115,18.6667449 20.7228,18.7084742 21.3126,18.6351555 C22.0964,18.5378522 22.2436,18.8420469 22.218,19.5430596 L22.218,19.5430596 Z M15.6276,16.7046893 C15.3992,16.6730999 15.1622,16.6998144 14.9292,16.6998144 C13.3898,16.6998144 13.0474,16.2287027 13.388,14.6786748 C13.4612,14.3458157 13.6376,14.3598554 13.8722,14.3600504 C14.305,14.3604404 14.7378,14.3600504 15.1708,14.3600504 C16.6048,14.3598554 16.5468,14.3627804 16.6226,15.7924953 C16.6656,16.6023161 16.363,16.8068675 15.6276,16.7046893 L15.6276,16.7046893 Z M16.6,21.4308215 C16.6,24.0387058 16.6018,24.022911 13.8464,23.7352911 C13.397,23.6882969 13.3952,23.4954453 13.397,23.1791608 C13.4046,21.8477242 13.4174,20.5158975 13.3902,19.1850458 C13.3814,18.7533234 13.5248,18.6597251 13.9532,18.6373004 C16.6008,18.4994379 16.6,18.4871531 16.6,21.2360199 L16.6,21.4308215 Z M11.0124,16.3556454 C10.9522,16.6748548 10.8104,16.7060543 10.5534,16.7015694 C10.0872,16.6937695 9.621,16.6998144 9.1548,16.6998144 C7.7994,16.7000094 7.7994,16.6998144 7.8,15.3882674 C7.8008,14.3598554 7.8008,14.3598554 9.4452,14.3598554 C11.0532,14.3598554 11.3204,14.7192341 11.0124,16.3556454 L11.0124,16.3556454 Z M10.0276,20.9946141 C9.7992,20.9630247 9.5622,20.9897392 9.3292,20.9897392 C7.7898,20.9897392 7.4474,20.5186275 7.788,18.9685996 C7.8612,18.6357405 8.0376,18.6497802 8.2722,18.6499752 C8.705,18.6503652 9.1378,18.6499752 9.5708,18.6499752 C11.0048,18.6497802 10.9468,18.6527052 11.0226,20.0824201 C11.0656,20.8922409 10.763,21.0967923 10.0276,20.9946141 L10.0276,20.9946141 Z M23.6774,8.24866255 C22.6128,8.18275371 21.5474,8.19094357 20.4826,8.24125268 C19.828,8.27206214 19.5514,8.65718039 19.5146,9.25932984 C19.4768,9.87590903 19.5166,10.4936582 19.4804,11.1096524 C19.3952,12.560037 18.7098,13.2316052 17.2106,13.2690446 C15.746,13.3053139 14.2796,13.302389 12.8148,13.2700195 C11.3734,13.2380401 10.6842,12.5961113 10.5386,11.2063707 C10.4708,10.559372 10.5242,9.90827846 10.4868,9.25932984 C10.4482,8.5938065 10.1024,8.25509744 9.4184,8.22935789 C8.5524,8.19659847 7.6864,8.22662794 6.821,8.2116132 C5.9722,8.19737845 5.3272,8.48109848 5,9.2899443 L5,24.4996777 C5.2436,24.65353 5.5172,24.5919111 5.7778,24.5919111 C11.926,24.595421 18.0742,24.595421 24.2224,24.5919111 C24.483,24.5919111 24.7566,24.65353 25,24.4996777 L25,9.2899443 C24.7324,8.73361905 24.3658,8.29136681 23.6774,8.24866255 L23.6774,8.24866255 Z M16.3518,9.28017497 C15.5856,9.17507181 15.272,9.43578224 15.3878,10.2073837 C15.4286,10.479209 15.5584,10.9183413 14.9858,10.8483375 C14.4506,10.875052 14.5852,10.4852538 14.6108,10.2428731 C14.685,9.54888026 14.531,9.14231239 13.6836,9.27530006 C13.4238,9.31585935 12.9856,9.47439157 12.9932,8.89369175 C13.0006,8.31318692 13.4392,8.49297377 13.6968,8.52514821 C14.4326,8.61738159 14.7214,8.38163072 14.617,7.64025372 C14.5824,7.39494802 14.3874,6.96342058 14.9818,6.94333593 C15.5764,6.92305629 15.4276,7.3444439 15.386,7.60534933 C15.2582,8.40756527 15.63,8.6054868 16.3662,8.52202826 C16.6072,8.49492374 16.9804,8.35043127 17.0084,8.85820237 C17.0392,9.41608759 16.6464,9.32053926 16.3518,9.28017497 M18.2,5 L11.8,5 C11.1602,5.5762149 10.9328,6.26435784 10.9804,7.12936267 C11.055,8.48634389 10.992,9.85014998 11.0028,11.2108361 C11.0114,12.300672 11.509,12.816438 12.6302,12.8357426 C14.1916,12.8628472 15.7542,12.8597272 17.3158,12.8392526 C18.5478,12.8228729 19.0236,12.3351864 19.0388,11.101833 C19.0546,9.80569076 18.9946,8.50740352 19.059,7.21418619 C19.1034,6.3236368 18.881,5.5931796 18.2,5" id="Fill-4" fill="#9B9B9B"></path>
            <rect id="Rectangle-22" x="0" y="0" width="30" height="30"></rect>
        </g>
    </g>
</svg>