<?xml version="1.0" encoding="UTF-8"?>
<svg width="22px" height="21px" viewBox="0 0 22 21" version="1.1" xmlns="http://www.w3.org/2000/svg" xmlns:xlink="http://www.w3.org/1999/xlink">
    <!-- Generator: Sketch 46.2 (44496) - http://www.bohemiancoding.com/sketch -->
    <title>Fill 4 Copy</title>
    <desc>Created with Sketch.</desc>
    <defs></defs>
    <g id="live" stroke="none" stroke-width="1" fill="none" fill-rule="evenodd">
        <path d="M18.0889023,11.8983006 C18.0258543,12.3029831 17.8255717,12.2974507 17.5342897,12.2954017 C16.8695532,12.2908939 16.1993526,12.2431516 15.5413413,12.3079008 C14.8267968,12.3785921 14.682627,12.1070963 14.6952366,11.4612435 C14.7263403,9.83595665 14.6935553,9.83534194 16.4053095,9.83534194 C18.1782203,9.83534194 18.3696762,10.0939289 18.0889023,11.8983006 L18.0889023,11.8983006 Z M18.0926852,15.2818561 C18.0365724,16.8005937 18.0798654,16.802028 16.4815977,16.802028 C14.5126074,16.802028 14.5304711,16.8034623 14.697128,14.8394715 C14.7320146,14.4280273 14.8642053,14.3220926 15.2540524,14.3368456 C15.8828515,14.3610241 16.5215281,14.4048733 17.1412903,14.3278299 C17.9649078,14.2255836 18.1195857,14.5452315 18.0926852,15.2818561 L18.0926852,15.2818561 Z M11.1674887,12.2992949 C10.9274859,12.2661007 10.6784461,12.2941723 10.4336096,12.2941723 C8.81600709,12.2941723 8.45621295,11.7991278 8.81411565,10.1703576 C8.89103425,9.82058896 9.07639548,9.83534194 9.32291331,9.83554684 C9.77769982,9.83595665 10.2324863,9.83554684 10.687483,9.83554684 C12.1943311,9.83534194 12.1333847,9.83841548 12.2130354,11.3407608 C12.2582198,12.191721 11.9402475,12.4066638 11.1674887,12.2992949 L11.1674887,12.2992949 Z M12.1892873,17.2655175 C12.1892873,20.0058839 12.1911787,19.9892868 9.29580265,19.6870556 C8.82357285,19.6376741 8.82168141,19.4350255 8.82357285,19.1026736 C8.83155894,17.7035991 8.84500919,16.3041148 8.81642741,14.9056551 C8.80718036,14.4520008 8.95786517,14.3536476 9.40802816,14.3300838 C12.1901279,14.1852178 12.1892873,14.1723089 12.1892873,17.0608199 L12.1892873,17.2655175 Z M6.31783368,11.9325193 C6.25457548,12.2679448 6.10557195,12.3007292 5.83551619,12.2960164 C5.34563294,12.2878203 4.85574969,12.2941723 4.36586644,12.2941723 C2.94161127,12.2943772 2.94161127,12.2941723 2.94224175,10.9159979 C2.94308239,9.83534194 2.94308239,9.83534194 4.67101894,9.83534194 C6.36070635,9.83534194 6.64148027,10.2129773 6.31783368,11.9325193 L6.31783368,11.9325193 Z M5.28300523,16.8071505 C5.04300236,16.7739563 4.79396261,16.802028 4.54912607,16.802028 C2.93152359,16.802028 2.57172945,16.3069835 2.92963214,14.6782132 C3.00655075,14.3284446 3.19191198,14.3431976 3.43842981,14.3434025 C3.89321632,14.3438123 4.34800283,14.3434025 4.8029995,14.3434025 C6.3098476,14.3431976 6.24890116,14.3462711 6.32855185,15.8486165 C6.37373627,16.6995767 6.05576401,16.9145195 5.28300523,16.8071505 L5.28300523,16.8071505 Z M19.6262236,3.41369664 C18.5075413,3.34443959 17.3880183,3.35304549 16.2691258,3.40591035 C15.5812717,3.43828495 15.2906202,3.84296744 15.2519508,4.47570646 C15.2122305,5.12360826 15.2540524,5.77273947 15.2160134,6.42002657 C15.1264852,7.94409159 14.4062664,8.6497759 12.8309061,8.68911719 C11.2919035,8.72722906 9.75100948,8.72415552 8.21179673,8.6901417 C6.69717271,8.65653768 5.97296092,7.98199855 5.81996434,6.52165822 C5.74872006,5.84179163 5.80483282,5.15762208 5.76553287,4.47570646 C5.72497197,3.77637412 5.36160511,3.42045843 4.64285748,3.39341129 C3.73286414,3.35898767 2.8228708,3.39054266 1.91350794,3.37476516 C1.02158837,3.35980728 0.343821965,3.65794046 0,4.50787615 L0,20.4902735 C0.255975032,20.6519416 0.543474084,20.5871924 0.817312727,20.5871924 C7.27784513,20.5908807 13.7383775,20.5908807 20.1989099,20.5871924 C20.4727486,20.5871924 20.7602476,20.6519416 21.0160125,20.4902735 L21.0160125,4.50787615 C20.7348183,3.92328924 20.3495948,3.4585703 19.6262236,3.41369664 L19.6262236,3.41369664 Z M11.9284785,4.49761054 C11.1233551,4.38716807 10.793824,4.66112276 10.9155067,5.47192207 C10.9583794,5.7575562 11.0947733,6.21899669 10.4930849,6.14543669 C9.93069639,6.17350833 10.0721342,5.76390817 10.0990347,5.50921433 C10.1770041,4.77996622 10.0151808,4.35274445 9.12473231,4.49248797 C8.85173431,4.5351077 8.39127348,4.70169346 8.39925956,4.09149372 C8.40703548,3.48149889 8.86791664,3.67041902 9.13860288,3.70422794 C9.91178198,3.80114684 10.2152532,3.55341968 10.1055496,2.77438026 C10.0691919,2.51661288 9.86428579,2.06316358 10.4888817,2.04205862 C11.1136877,2.02074875 10.9573286,2.46354312 10.9136153,2.73770271 C10.779323,3.58067172 11.1700106,3.78864778 11.9436101,3.7009495 C12.196853,3.67246805 12.5890118,3.52063527 12.6184342,4.05420146 C12.6507989,4.6404276 12.2380444,4.54002536 11.9284785,4.49761054 M13.8705683,0 L7.14544425,0 C6.47314201,0.605486977 6.23418995,1.32858801 6.28420806,2.23753563 C6.36259779,3.66345234 6.29639735,5.09654063 6.307746,6.52635049 C6.31678288,7.67155073 6.83966127,8.21351792 8.01781893,8.23380327 C9.65853903,8.26228473 11.3005201,8.25900629 12.9414503,8.23749152 C14.2360367,8.22027971 14.7360077,7.70781848 14.7519798,6.41180998 C14.7685825,5.04982286 14.7055344,3.68558181 14.773206,2.32666823 C14.8198615,1.39087838 14.5861635,0.623313497 13.8705683,0" id="Fill-4-Copy" fill="#F5A623"></path>
    </g>
</svg>