<?xml version="1.0" encoding="UTF-8"?>
<svg width="21px" height="21px" viewBox="0 0 21 21" version="1.1" xmlns="http://www.w3.org/2000/svg" xmlns:xlink="http://www.w3.org/1999/xlink">
    <!-- Generator: Sketch 46.2 (44496) - http://www.bohemiancoding.com/sketch -->
    <title>Group 74</title>
    <desc>Created with Sketch.</desc>
    <defs></defs>
    <g id="live" stroke="none" stroke-width="1" fill="none" fill-rule="evenodd">
        <g id="Group-74" transform="translate(-5.000000, -5.000000)">
            <path d="M23.0021292,13.7272653 C21.9323118,14.8567764 20.7853393,15.9131931 19.7096337,17.0374252 C19.3364463,17.427668 19.1246757,17.4238102 18.7533156,17.0355979 C17.4248254,15.6468047 16.0591788,14.2937467 14.6596246,12.8787614 C13.3148912,14.2413624 12.0339122,15.5432544 10.7484665,16.8406795 C9.49916178,18.1015575 8.2447811,19.3573594 6.89334733,20.7154935 C6.54310346,18.9717866 7.16176612,17.677001 8.19016336,16.6165234 C11.0871371,13.629197 14.0283735,10.6834937 16.9947868,7.76479471 C18.6568717,6.12910504 21.3069488,6.1833167 22.9278166,7.79098686 C24.5427962,9.39276886 24.5966018,12.0434551 23.0021292,13.7272653 M20.8696008,5.00020304 C20.249923,5 19.6304481,5 19.0107703,5 C17.63152,5.13583371 16.5426169,5.83997618 15.5915779,6.78472097 C12.6215098,9.73529722 9.65611164,12.6905434 6.70066244,15.6557385 C5.77703381,16.5826158 5.13177291,17.6692855 5,19.0071156 C5.00121824,19.6269965 5.00223344,20.2466743 5.00345168,20.8665552 C5.35308644,23.1397903 6.66594261,24.6802542 8.76618764,25.4668309 C11.0026725,26.3043706 13.136216,25.9001181 14.8508882,24.2410788 C18.0256205,21.1690847 21.1169035,18.0103925 24.2191505,14.8640858 C25.1137445,13.9567004 25.6621553,12.8454628 25.772609,11.549662 L25.7734212,10.0530547 C25.4272381,7.395059 23.4697302,5.37785731 20.8696008,5.00020304" id="Fill-9" fill="#9B9B9B"></path>
            <rect id="Rectangle-22-Copy" x="0" y="0" width="30" height="30"></rect>
        </g>
    </g>
</svg>