<?xml version="1.0" encoding="UTF-8"?>
<svg width="15px" height="20px" viewBox="0 0 15 20" version="1.1" xmlns="http://www.w3.org/2000/svg" xmlns:xlink="http://www.w3.org/1999/xlink">
    <!-- Generator: Sketch 46.2 (44496) - http://www.bohemiancoding.com/sketch -->
    <title>Group 76</title>
    <desc>Created with Sketch.</desc>
    <defs></defs>
    <g id="live" stroke="none" stroke-width="1" fill="none" fill-rule="evenodd">
        <g id="Group-76" transform="translate(-8.000000, -5.000000)">
            <path d="M19.8482585,25 L11.1730403,25 C10.4335812,24.8216 10.1256109,24.328 10.0663303,23.626 C9.6687161,18.924 9.20273295,14.2278 8.79850909,9.5264 C8.74934952,8.9542 8.64462725,8.4308 8.27076665,7.9456 C7.78185614,7.3112 7.96052432,6.9024 8.76236235,6.7652 C9.54251233,6.6316 10.3391865,6.7028 11.1280117,6.7086 C11.7693582,6.7134 12.2801633,6.6004 12.429501,5.8818 C12.5381478,5.3602 12.9729415,5.1502 13.4451212,5 L17.5761775,5 C18.0964841,5.1538 18.5062849,5.4254 18.6287707,5.9754 C18.7541482,6.5376 19.1449462,6.6994 19.6871473,6.7026 C20.4767987,6.7074 21.269755,6.6544 22.0556884,6.7364 C23.0483813,6.84 23.256793,7.2542 22.6885663,8.0256 C22.3477541,8.4884 22.2702968,8.9912 22.2238224,9.5264 C21.817533,14.2278 21.3525826,18.924 20.9549685,23.626 C20.8956878,24.328 20.5877176,24.8216 19.8482585,25 Z M12.61891,15.89844 C12.61891,17.99724 12.6168444,20.09604 12.621182,22.19484 C12.6218017,22.51504 12.5404199,22.95684 13.0305697,22.95784 C13.5209261,22.95904 13.4428491,22.51804 13.4430557,22.19724 C13.446154,18.06624 13.446154,13.93524 13.4430557,9.80424 C13.4428491,9.48384 13.5229916,9.04304 13.0326353,9.04144 C12.5398002,9.04004 12.6220083,9.48224 12.621182,9.80204 C12.6166379,11.83404 12.61891,13.86624 12.61891,15.89844 Z M15.0975437,16.0001 C15.0975437,18.0657 15.0954782,20.1311 15.0998158,22.1965 C15.1004355,22.5169 15.0198799,22.9585 15.5108559,22.9579 C16.0005927,22.9571 15.9214829,22.5161 15.9216895,22.1955 C15.9247878,18.0645 15.9247878,13.9335 15.9216895,9.8025 C15.9214829,9.4821 16.0007992,9.0411 15.5096166,9.0415 C15.0176078,9.0419 15.100642,9.4839 15.0998158,9.8037 C15.0952717,11.8691 15.0975437,13.9347 15.0975437,16.0001 Z M17.5761775,15.89864 C17.5761775,17.99744 17.574112,20.09624 17.5784496,22.19504 C17.5790693,22.51524 17.4976875,22.95704 17.9880438,22.95784 C18.4784002,22.95884 18.4001167,22.51764 18.4003233,22.19704 C18.4034215,18.06604 18.4034215,13.93504 18.4003233,9.80404 C18.4001167,9.48364 18.4800526,9.04264 17.9896963,9.04144 C17.4970678,9.04024 17.5792758,9.48244 17.5784496,9.80224 C17.5739054,11.83444 17.5761775,13.86644 17.5761775,15.89864 Z M15.5290945,7.0001 C16.0066446,7.0001 16.4844013,6.9907 16.9615383,7.0031 C17.3252778,7.0125 17.6322153,7.0307 17.588013,6.5113 C17.5531056,6.1007 17.494238,5.7949 16.9753774,5.7985 C16.0202771,5.8055 15.0649704,5.8137 14.1102833,5.7953 C13.5428827,5.7843 13.4555108,6.0841 13.4325835,6.5479 C13.4049054,7.1045 13.7748415,6.9959 14.0964442,6.9989 C14.5739943,7.0035 15.0515444,7.0001 15.5290945,7.0001 Z" id="Combined-Shape" fill="#9B9B9B"></path>
            <rect id="Rectangle-22-Copy-16" x="0" y="0" width="30" height="30"></rect>
        </g>
    </g>
</svg>