<?xml version="1.0" encoding="UTF-8"?>
<svg width="20px" height="14px" viewBox="0 0 20 14" version="1.1" xmlns="http://www.w3.org/2000/svg" xmlns:xlink="http://www.w3.org/1999/xlink">
    <!-- Generator: Sketch 46.2 (44496) - http://www.bohemiancoding.com/sketch -->
    <title>Group 78</title>
    <desc>Created with Sketch.</desc>
    <defs></defs>
    <g id="live" stroke="none" stroke-width="1" fill="none" fill-rule="evenodd">
        <g id="Group-78" transform="translate(-5.000000, -9.000000)">
            <path d="M21.1850327,20.7685619 C19.8436551,20.9323059 18.5153026,19.9124206 18.2179997,18.4672558 C18.0300662,17.5528117 18.3581745,16.7880528 18.9608434,16.1124021 C19.300116,15.7324002 19.4816403,15.7933907 19.6553081,16.2695301 C19.8655703,16.8461488 20.1827209,17.3841058 20.3921561,17.9609312 C20.5678915,18.445754 20.7413526,18.5809669 21.2809635,18.3566459 C21.8447639,18.1221942 21.7713685,17.8536293 21.5828148,17.4391006 C21.2623562,16.7355389 20.9654669,16.0210197 20.6464555,15.2825177 C22.3889232,15.2775558 23.6157627,16.3437525 23.715415,17.8757512 C23.8061771,19.2696427 22.651906,20.5893118 21.1850327,20.7685619 M15.1200956,16.3563641 C14.572835,15.1260099 14.0710589,13.9986159 13.5149082,12.7484139 L17.5518593,12.7484139 C16.7325191,13.9640891 15.9652792,15.1020272 15.1200956,16.3563641 M9.47961101,17.0655079 C9.00698629,17.0566178 8.81677861,17.159578 8.82690924,17.6801681 C8.83600613,18.1556873 8.92263332,18.3709114 9.44942588,18.3258405 C9.99585945,18.2789088 10.5534574,18.3574729 11.099064,18.3059927 C11.9891118,18.2220533 11.874367,18.6471261 11.6122112,19.1999688 C11.1189117,20.2399086 9.90613105,20.92569 8.83579938,20.759465 C7.51923147,20.555612 6.52229516,19.5191869 6.38646207,18.2139901 C6.27213072,17.1126463 7.06066558,15.8550014 8.13306472,15.4400593 C9.15315675,15.0449648 10.1544348,15.156195 10.9074091,15.9199202 C11.4848548,16.5056357 12.0726378,16.4754506 12.7577989,16.4216963 C12.7840559,15.9604427 12.5274823,15.6240645 12.2514744,15.4249667 C11.3082924,14.7449743 11.6649318,14.1820009 12.4232815,13.517928 C12.936222,14.6825365 13.4344834,15.812825 13.9904274,17.075225 C12.4036405,17.075225 10.9411089,17.0921783 9.47961101,17.0655079 M24.9490772,17.3175331 C25.2703627,19.3928642 24.0457975,21.3414591 21.9975503,21.8998841 C20.4428093,22.3235096 19.0671116,21.9222128 17.9686622,20.7332081 C16.8346524,19.5057483 16.6396895,18.0700939 17.1629673,16.5172136 C17.2603454,16.2279739 17.4220219,15.9606494 17.5541336,15.6831943 C17.8553646,15.0437244 19.2136955,14.9256716 18.4766408,13.6572758 L17.3509008,15.4264139 C17.0521507,15.8438371 16.7232155,16.2430665 16.4606462,16.6819913 C15.8288259,17.7392979 15.1779849,18.7186607 13.6856816,18.3227393 C13.3941677,18.2454157 13.2318709,18.3529244 13.140902,18.7203147 C12.6641423,20.6436864 11.4807198,21.8699057 9.44797865,22.0202111 C7.19505144,22.1866428 5.57063654,20.5622279 5.12364851,18.9359523 C4.97747804,18.4403786 4.94109049,17.6528775 5.12364851,17.075225 C5.98702595,14.8638541 7.51468303,13.6870474 9.96836204,14.0259066 C10.442434,14.0912388 10.6041105,13.8108892 10.7374626,13.5119323 C11.5379889,11.7179845 12.9219564,11.1926392 14.7930211,11.4707145 C15.6634279,11.5999317 16.5689819,11.4928365 17.4786707,11.4928365 C17.4249164,10.7838994 16.8923349,10.2860515 16.8972968,9.60564558 C16.9001913,9.19711258 16.9498107,8.9825087 17.4412494,9.00111597 C18.4381858,9.03874401 19.4373963,9.00359694 20.4355731,9.01827601 C21.1492654,9.02882014 21.6001816,9.47146647 21.8081696,10.0852997 C22.0045797,10.6654331 21.8838391,11.2499082 21.387025,11.6859387 C21.1015067,11.9363098 20.7409391,12.2780634 20.3981518,12.0341014 C20.0896846,11.8145356 20.1461266,11.2490812 20.3284779,10.9883727 C20.9379695,10.1175523 20.2691414,10.2724062 19.8010651,10.2554529 C19.3950131,10.2407738 18.988134,10.2525584 18.442114,10.2525584 C18.9616704,11.4496263 19.4562103,12.5313291 19.8984432,13.6339133 C20.1087053,14.1582249 20.5095887,13.9651228 20.849068,13.9688443 C22.9101336,13.9917932 24.6532215,15.4065662 24.9490772,17.3175331 Z M13.7255632,10.8727595 C12.7079521,10.8727595 11.71329,10.851051 10.7202819,10.8822699 C10.2495179,10.896949 10.0549686,10.7919212 10.0673734,10.2696771 C10.078331,9.8005671 10.1531736,9.56983692 10.6851349,9.62214403 C11.1616878,9.66907571 11.6537468,9.68540876 12.1257512,9.62049005 C13.0304782,9.49685506 13.5560303,9.84046936 13.7255632,10.8727595 Z" id="Fill-3" fill="#9B9B9B"></path>
            <rect id="Rectangle-22-Copy-8" x="0" y="0" width="30" height="30"></rect>
        </g>
    </g>
</svg>