<?xml version="1.0" encoding="UTF-8"?>
<svg width="16px" height="20px" viewBox="0 0 16 20" version="1.1" xmlns="http://www.w3.org/2000/svg" xmlns:xlink="http://www.w3.org/1999/xlink">
    <!-- Generator: Sketch 46.2 (44496) - http://www.bohemiancoding.com/sketch -->
    <title>Group 88</title>
    <desc>Created with Sketch.</desc>
    <defs></defs>
    <g id="live" stroke="none" stroke-width="1" fill="none" fill-rule="evenodd">
        <g id="Group-88" transform="translate(-8.000000, -5.000000)">
            <path d="M17.2855416,5.47189129 C17.6777862,5.86830649 18.0335381,6.28223819 18.0335381,6.94849098 C18.0335381,7.94088441 17.4684222,8.81233055 16.5567299,9.08946669 C15.6049997,9.37869755 14.5596397,8.93723992 14.0846088,8.04577492 C13.6331417,7.19789265 13.8249892,6.15837147 14.5327394,5.48356896 C15.2204707,4.82795119 16.6739236,4.85360036 17.2855416,5.47189129 Z M17.19187,13.6691153 C17.1924956,16.1412364 17.1893676,16.1687623 19.6518963,16.4506946 C20.6743181,16.5674713 21.3482865,16.9609671 21.7643035,17.9608676 C22.3079407,19.2675155 23.0038047,20.5113959 23.6446169,21.7767549 C23.9196677,22.3193495 24.0704348,22.8888444 23.4383809,23.2256201 C22.7475216,23.5938838 22.358822,23.1176016 22.0725105,22.5326755 C21.5703707,21.5073343 21.0415391,20.494505 20.5525366,19.4629079 C20.3817507,19.1027769 20.2074198,18.9342848 19.7680474,19.0141517 C18.2885283,19.2833638 16.7887818,19.1536582 15.2984192,19.1461511 C14.0432782,19.1398952 13.0573492,18.1510468 13.0323256,16.9017446 C12.9989608,15.2353828 13.000629,13.5671442 13.0308659,11.9005738 C13.0519274,10.7357262 13.9371365,9.97250708 15.1612066,9.98460181 C16.3135424,9.99607095 17.1399461,10.7645034 17.1868653,11.897863 C17.2112633,12.4873768 17.1910359,13.0785588 17.19187,13.6691153 Z M19.6048312,20.0622644 C18.9450428,23.275709 16.5947031,25.1234917 13.3781306,24.9935776 C10.7385601,24.8872274 8.29250523,22.5656649 8.0328856,19.9204641 C7.74094384,16.9468288 9.41606392,14.3842058 12.1311222,13.6476784 C12.3511212,14.6605078 12.1371696,15.3665898 11.1967001,16.0655817 C9.77306698,17.123245 9.36685088,18.7251711 9.91674403,20.4417886 C10.4685139,22.1640365 11.7526406,23.0719753 13.5130494,23.3042775 C15.0161324,23.5025894 16.8040671,22.6342712 17.418813,21.1124206 C17.8823748,19.9648809 18.5536323,19.8478957 19.6048312,20.0622644 Z" id="Combined-Shape" fill="#9B9B9B"></path>
            <rect id="Rectangle-23" x="0" y="0" width="30" height="30"></rect>
        </g>
    </g>
</svg>