<?xml version="1.0" encoding="UTF-8"?>
<svg width="56px" height="24px" viewBox="0 0 56 24" version="1.1" xmlns="http://www.w3.org/2000/svg" xmlns:xlink="http://www.w3.org/1999/xlink">
    <!-- Generator: Sketch 43.2 (39069) - http://www.bohemiancoding.com/sketch -->
    <title>pos2</title>
    <desc>Created with Sketch.</desc>
    <defs>
        <polygon id="path-1" points="54 0 54 20 49 20 49 0"></polygon>
        <polygon id="path-2" points="48 4 43 4 43 20 48 20"></polygon>
        <polygon id="path-3" points="42 8 37 8 37 20 42 20"></polygon>
        <linearGradient x1="3.395%" y1="3.395%" x2="93.7635%" y2="93.7635%" id="linearGradient-4">
            <stop stop-color="#FFFFFF" offset="0%"></stop>
            <stop stop-color="#F39800" offset="100%"></stop>
        </linearGradient>
        <path d="M17,20 L3,20 C1.3,20 0,18.7 0,17 L0,3 C0,1.3 1.3,0 3,0 L17,0 C18.7,0 20,1.3 20,3 L20,17 C20,18.7 18.7,20 17,20 Z" id="path-5"></path>
        <filter x="-5.2%" y="-2.8%" width="110.5%" height="110.5%" filterUnits="objectBoundingBox" id="filter-6">
            <feMorphology radius="0.05" operator="dilate" in="SourceAlpha" result="shadowSpreadOuter1"></feMorphology>
            <feOffset dx="0" dy="0.5" in="shadowSpreadOuter1" result="shadowOffsetOuter1"></feOffset>
            <feGaussianBlur stdDeviation="0.25" in="shadowOffsetOuter1" result="shadowBlurOuter1"></feGaussianBlur>
            <feComposite in="shadowBlurOuter1" in2="SourceAlpha" operator="out" result="shadowBlurOuter1"></feComposite>
            <feColorMatrix values="0 0 0 0 0   0 0 0 0 0   0 0 0 0 0  0 0 0 0.5 0" type="matrix" in="shadowBlurOuter1"></feColorMatrix>
        </filter>
    </defs>
    <g id="Page-1" stroke="none" stroke-width="1" fill="none" fill-rule="evenodd">
        <g id="pos2" transform="translate(2.000000, 1.000000)">
            <g id="Shape" fill-rule="nonzero">
                <use fill="#FFFFFF" fill-rule="evenodd" xlink:href="#path-1"></use>
                <path stroke="#4A4A4A" stroke-width="0.2" d="M53.9,0.1 L53.9,19.9 L49.1,19.9 L49.1,0.1 L53.9,0.1 Z"></path>
            </g>
            <g id="Shape" fill-rule="nonzero">
                <use fill="#FFFFFF" fill-rule="evenodd" xlink:href="#path-2"></use>
                <path stroke="#4A4A4A" stroke-width="0.2" d="M47.9,4.1 L47.9,19.9 L43.1,19.9 L43.1,4.1 L47.9,4.1 Z"></path>
            </g>
            <g id="Shape" fill-rule="nonzero">
                <use fill="#FFFFFF" fill-rule="evenodd" xlink:href="#path-3"></use>
                <path stroke="#4A4A4A" stroke-width="0.2" d="M41.9,8.1 L41.9,19.9 L37.1,19.9 L37.1,8.1 L41.9,8.1 Z"></path>
            </g>
            <polygon id="Shape" fill="#FCC800" fill-rule="nonzero" points="36 12 36 20 31 20 31 12 36 12"></polygon>
            <rect id="Rectangle-path" fill="#FCC800" fill-rule="nonzero" x="25" y="16" width="5" height="4"></rect>
            <g id="Group-7">
                <g id="Shape" fill-rule="nonzero">
                    <use fill="black" fill-opacity="1" filter="url(#filter-6)" xlink:href="#path-5"></use>
                    <use stroke="#9B9B9B" stroke-width="0.1" fill="url(#linearGradient-4)" fill-rule="evenodd" xlink:href="#path-5"></use>
                </g>
                <circle id="Oval" fill="#323333" fill-rule="nonzero" cx="14.9" cy="6.5" r="1.6"></circle>
                <circle id="Oval" fill="#323333" fill-rule="nonzero" cx="5.1" cy="6.5" r="1.6"></circle>
                <path d="M3.9,12.7 C3.9,12.7 6,15.7 10,15.7 C14,15.7 16.1,12.7 16.1,12.7" id="Shape" stroke="#323333" stroke-linecap="round"></path>
            </g>
        </g>
    </g>
</svg>
