<?xml version="1.0" encoding="UTF-8"?>
<svg width="20px" height="12px" viewBox="0 0 20 12" version="1.1" xmlns="http://www.w3.org/2000/svg" xmlns:xlink="http://www.w3.org/1999/xlink">
    <!-- Generator: Sketch 46.2 (44496) - http://www.bohemiancoding.com/sketch -->
    <title>Group 81</title>
    <desc>Created with Sketch.</desc>
    <defs></defs>
    <g id="live" stroke="none" stroke-width="1" fill="none" fill-rule="evenodd">
        <g id="Group-81" transform="translate(-5.000000, -9.000000)">
            <path d="M14.2796294,20.5543108 C12.0610294,20.5543108 9.84242937,20.5616402 7.62382935,20.5518676 C5.86032107,20.5443161 5.01965623,19.7247511 5.00943943,17.9952248 C4.99677949,15.8505855 4.99700159,13.7059463 5.00921733,11.561307 C5.01898992,9.87242576 5.85188111,9.01377047 7.51410981,9.00932838 C12.0621399,8.99689054 16.61017,8.99689054 21.1582001,9.00932838 C22.8199846,9.01377047 23.634219,9.86465211 23.6606494,11.565527 C23.6690894,12.1027973 23.4927386,12.7178042 24.4402356,12.5796553 C24.9388598,12.5070272 25.0003827,12.9332453 24.9974953,13.3368089 C24.9908322,14.2982985 24.9848354,15.2597881 24.9997164,16.2208334 C25.0070458,16.6999125 24.8746716,17.0661625 24.3289613,16.9890923 C23.638439,16.8918106 23.6655357,17.2898215 23.6557631,17.7706774 C23.612897,19.8469085 22.8881706,20.550535 20.8243773,20.5536445 C18.6428687,20.5567539 16.461138,20.5543108 14.2796294,20.5543108 Z M6.78338661,14.6709229 C6.78338661,15.8172033 6.78338661,16.9637058 6.78360872,18.1099861 C6.78383082,18.4264848 6.8446874,18.7429834 7.22959418,18.7400961 C7.61205782,18.7374308 7.67135967,18.4207101 7.67135967,18.1044335 C7.67113757,15.8858335 7.67135967,13.6670114 7.67091546,11.4481893 C7.67069336,11.1314685 7.60872625,10.8163025 7.22404158,10.8183014 C6.8393569,10.8207446 6.78338661,11.1381316 6.78338661,11.4537419 L6.78338661,14.6709229 Z M9.44832747,14.781864 C9.44832747,13.7093222 9.44854957,12.6370026 9.44810536,11.564683 C9.44788326,11.2273065 9.46165373,10.8255198 9.00633988,10.8224103 C8.54747236,10.8193009 8.56035441,11.221976 8.56035441,11.5591304 C8.55968809,13.7039917 8.55968809,15.8488531 8.5601323,17.9934924 C8.5601323,18.3308689 8.54591763,18.733544 9.00100937,18.7359871 C9.45721164,18.7386524 9.44788326,18.3373099 9.44810536,17.999045 C9.44877167,16.9267254 9.44832747,15.8541836 9.44832747,14.781864 Z M11.225162,14.781864 C11.225162,13.7093222 11.2253841,12.6370026 11.2249399,11.564683 C11.2247178,11.2270844 11.2384883,10.8255198 10.7831744,10.8224103 C10.3243069,10.8193009 10.3371889,11.221976 10.3371889,11.5591304 C10.3365226,13.7039917 10.3365226,15.8488531 10.3369668,17.9934924 C10.3369668,18.3308689 10.3227522,18.733544 10.7778439,18.7359871 C11.2342683,18.7386524 11.2247178,18.3373099 11.2249399,17.999045 C11.2256062,16.9267254 11.225162,15.8541836 11.225162,14.781864 Z M12.1136903,14.7277594 C12.1136903,15.8371704 12.1159114,16.9465815 12.1123577,18.0559926 C12.1114693,18.3671607 12.1374555,18.7083129 12.5072592,18.7371865 C12.9665709,18.7731674 13.0021076,18.3998101 13.0021076,18.0477747 C13.0016634,15.8658219 13.000775,13.6840912 13.0032181,11.5023605 C13.0034402,11.1907481 12.9770098,10.8504843 12.6074282,10.8213887 C12.1461175,10.7847414 12.1134682,11.1589872 12.1136903,11.5105784 C12.1139124,12.582898 12.1136903,13.6552176 12.1136903,14.7277594 Z M14.7788311,14.7838185 C14.7788311,13.7112768 14.7790532,12.6389571 14.778609,11.5664154 C14.7783869,11.229261 14.7930457,10.8272522 14.3390645,10.8221438 C13.8808633,10.8168133 13.890858,11.2188221 13.890858,11.5568649 C13.8901917,13.7017263 13.8901917,15.8465877 13.8906359,17.9914491 C13.8906359,18.3283813 13.8748665,18.7312785 14.3297361,18.7359427 C14.7863826,18.740829 14.7781648,18.3394865 14.778609,18.0009995 C14.7792753,16.9286799 14.7788311,15.8561382 14.7788311,14.7838185 Z M16.5556656,14.7922807 L16.5556656,11.5748776 C16.5556656,11.2377232 16.5738782,10.8352702 16.1238948,10.8212776 C15.6641389,10.8070629 15.6679146,11.2084054 15.6676925,11.5480029 C15.6670262,13.6928643 15.6672483,15.8379478 15.6672483,17.9828092 C15.6672483,18.318853 15.6461484,18.7226387 16.0981307,18.7359649 C16.556554,18.7495133 16.5549993,18.3497255 16.5552214,18.0096838 C16.5561098,16.9373642 16.5556656,15.8648224 16.5556656,14.7922807 Z" id="Combined-Shape-Copy-2" fill="#F5A623"></path>
            <rect id="Rectangle-22-Copy-14" x="0" y="0" width="30" height="30"></rect>
        </g>
    </g>
</svg>