<?xml version="1.0" encoding="UTF-8"?>
<svg width="20px" height="20px" viewBox="0 0 20 20" version="1.1" xmlns="http://www.w3.org/2000/svg" xmlns:xlink="http://www.w3.org/1999/xlink">
    <!-- Generator: Sketch 46.2 (44496) - http://www.bohemiancoding.com/sketch -->
    <title>Group 75</title>
    <desc>Created with Sketch.</desc>
    <defs></defs>
    <g id="live" stroke="none" stroke-width="1" fill="none" fill-rule="evenodd">
        <g id="Group-75" transform="translate(-6.000000, -5.000000)">
            <g id="Group-39" transform="translate(6.000000, 5.000000)" fill="#9B9B9B">
                <path d="M2.40089109,0.028 L11.7078218,0.028 C13.060099,0.392752475 13.560297,0.970772277 13.5814851,2.40384158 C13.6460396,6.78780198 13.5983168,11.1721584 13.5953465,15.5565149 C13.5947525,16.7149307 13.3454455,16.9571089 12.1888119,16.9662178 C8.82584158,16.9925545 5.46267327,16.9941386 2.09970297,16.9654257 C0.956138614,16.9555248 0.715148515,16.708198 0.709405941,15.5388911 C0.688019802,11.1539406 0.690990099,6.76859406 0.706435644,2.38344554 C0.710594059,1.19592079 1.20683168,0.360475248 2.40089109,0.028 Z M7.08934653,7.55265347 C8.14459406,7.55265347 9.20023762,7.53879208 10.2550891,7.55720792 C11.0115248,7.57067327 11.3295446,7.22037624 11.3168713,6.4760198 C11.2972673,5.32215842 11.3055842,4.16770297 11.314099,3.01344554 C11.3186535,2.37542574 11.0485545,2.01047525 10.3826139,2.00968317 C8.2390495,2.00770297 6.09548515,2.00988119 3.95192079,2.00790099 C3.29548515,2.00730693 2.99093069,2.33681188 2.99370297,2.98512871 C2.99865347,4.17245545 3.00241584,5.35958416 2.99231683,6.54671287 C2.98637624,7.25344554 3.32558416,7.56493069 4.02241584,7.5560198 C5.04459406,7.5429505 6.0669703,7.55265347 7.08934653,7.55265347 Z" id="Combined-Shape"></path>
                <path d="M0.420693069,19.8299802 C0.0412871287,19.218297 0.264257426,18.5454257 0.24009901,17.9008713 C0.225445545,17.5060198 0.545643564,17.4531485 0.867623762,17.4533465 C5.05772277,17.4547327 9.24762376,17.4569109 13.4377228,17.4501782 C13.8967327,17.4495842 14.1254455,17.6373069 14.0810891,18.0986931 C14.0256436,18.6767129 14.2525743,19.2872079 13.8860396,19.8299802 L0.420693069,19.8299802 Z" id="Fill-6"></path>
                <path d="M19.2325743,14.8794851 C18.8175248,15.7345347 18.279703,16.4497822 17.2636634,16.6307723 C15.910396,16.8715644 14.6145545,15.8747327 14.4973267,14.4672079 C14.4509901,13.9099802 14.4662376,13.3460198 14.4844554,12.7862178 C14.5058416,12.1371089 14.4343564,11.5335446 13.8929703,11.0856238 C13.580099,10.8264158 13.6866337,10.4969109 13.739901,10.1218614 C14.7240594,10.5016634 15.2020792,11.217901 15.259901,12.2139406 C15.300099,12.9042376 15.2466337,13.6000792 15.2816832,14.2907723 C15.329802,15.2357228 15.9743564,15.8600792 16.8488119,15.8642376 C17.7226733,15.868198 18.3848515,15.2458218 18.4282178,14.3044356 C18.4676238,13.4485941 18.4048515,12.588 18.4529703,11.7331485 C18.4824752,11.2087921 18.1652475,10.9317624 17.8343564,10.6870099 C16.3727723,9.60522772 15.7719802,8.18879208 16.0630693,6.39136634 C16.2288119,5.36641584 15.9218812,4.54146535 15.0579208,3.91671287 C14.7149505,3.66859406 14.4517822,3.31176238 14.1379208,3.02027723 C13.9151485,2.81354455 13.8072277,2.64740594 14.089604,2.38621782 C14.3151485,2.17770297 14.4583168,2.19889109 14.6551485,2.40641584 C16.1690099,4.00106931 17.8628713,5.42285149 19.2325743,7.15671287 L19.2325743,14.8794851 Z" id="Fill-8"></path>
            </g>
            <rect id="Rectangle-22-Copy-7" x="0" y="0" width="30" height="30"></rect>
        </g>
    </g>
</svg>