<?xml version="1.0" encoding="UTF-8"?>
<svg width="15px" height="20px" viewBox="0 0 15 20" version="1.1" xmlns="http://www.w3.org/2000/svg" xmlns:xlink="http://www.w3.org/1999/xlink">
    <!-- Generator: Sketch 46.2 (44496) - http://www.bohemiancoding.com/sketch -->
    <title>Group 77</title>
    <desc>Created with Sketch.</desc>
    <defs></defs>
    <g id="live" stroke="none" stroke-width="1" fill="none" fill-rule="evenodd">
        <g id="Group-77" transform="translate(-8.000000, -5.000000)">
            <g id="Group-22" transform="translate(8.000000, 5.000000)" fill="#9B9B9B">
                <path d="M2.15436145,13.1947952 C2.15436145,13.1947952 2.56817671,13.3479679 2.72496386,13.9503775 C2.72496386,13.9503775 2.53749398,15.5708594 3.52215261,16.15849 C3.52215261,16.15849 7.34327711,18.7059598 9.04110843,16.9076466 C9.04110843,16.9076466 9.70833735,15.916241 8.30970281,15.1755984 C8.30970281,15.1755984 6.70086747,14.4788112 5.97339759,13.4420241 C5.97339759,13.4420241 5.26327711,12.6176064 4.34448193,12.8271647 C4.34448193,12.8271647 3.73556627,12.9041928 3.47741365,12.0426667" id="Fill-1"></path>
                <path d="M5.27183133,17.5112851 C4.23263454,17.1130522 3.41608835,16.5849398 3.30082731,16.5087149 C2.37817671,15.9507229 2.28717269,14.7392369 2.29721285,14.1861446 C2.21351807,14.1946586 2.12877912,14.1991566 2.0453253,14.1991566 L2.04500402,14.1991566 C1.66580723,14.1991566 1.30588755,14.1130522 0.983959839,13.9593173 C0.778819277,14.2830924 0.66460241,14.4808434 0.66460241,14.4808434 C0.741148594,15.6776305 3.00749398,16.7214859 3.00749398,16.7214859 C3.7204257,17.1036546 3.69496386,17.8930522 3.69496386,17.8930522 C3.82235341,18.5043775 4.22966265,18.8350602 4.22966265,18.8350602 C5.68098795,19.8281526 6.85528514,18.2375502 6.85528514,18.2375502 C6.12307631,18.3153815 5.58195181,17.8694378 5.27183133,17.5112851" id="Fill-3"></path>
                <path d="M10.9794297,8.44431325 C12.1410361,8.31009639 12.4350924,7.13660241 12.4350924,7.13660241 C10.5297912,7.71788755 10.7558153,5.84495582 10.7558153,5.84495582 L10.7558153,3.7135502 C10.7558153,1.20640161 9.12946988,-2.40963855e-05 7.12288353,-2.40963855e-05 C5.11653815,-2.40963855e-05 3.47742169,1.70913253 3.76159839,4.21049799 L4.14023293,4.20640161 L4.22119679,5.18913253 C4.22119679,6.63604016 5.33461044,7.80881124 6.70786345,7.80881124 C6.82448996,7.80881124 6.93790361,7.79981526 7.04850602,7.78342972 L7.04850602,8.47025703 C7.03123695,8.46455422 7.02095582,8.46214458 7.02095582,8.46214458 C5.98930924,8.54873092 4.9235261,9.27427309 3.96625703,10.1931486 C4.25356627,10.5505783 4.44408835,10.9917028 4.49549398,11.4798153 C4.52882731,11.7960402 4.49967068,12.1046345 4.41926908,12.3938715 C5.11742169,12.3021446 5.68963052,12.6494538 6.00971084,12.9098554 C6.27509237,12.8925863 6.59059438,12.8068032 6.96553414,12.6177269 C6.97228112,12.6967631 7.03204016,13.1922651 7.47123695,13.5367631 C7.67364659,13.7104177 7.96135743,13.8433494 8.36826506,13.861743 C8.44537349,13.8688112 8.52601606,13.8732289 8.6117992,13.8732289 C8.6117992,13.8732289 8.77798394,13.8757189 9.02368675,13.8155582 C9.29613655,13.7601365 9.73750201,13.6053574 10.141759,13.1774859 C10.4761365,12.8396546 10.7820803,12.3386104 10.9558153,11.5923454 C10.9558153,11.5923454 12.2546104,13.4931486 12.6345301,14.1268032 C12.6345301,14.1268032 9.94216064,16.3758795 9.27718072,17.5479277 C9.27718072,17.5479277 8.42175904,19.1317831 6.93300402,18.9734699 C6.93300402,18.9734699 8.29509237,20.7786908 10.1006345,19.54351 C10.1006345,19.54351 10.6073012,19.1319438 10.7657751,18.3714618 C10.7657751,18.3714618 10.7341285,17.3894538 11.6210361,16.9141928 C11.6210361,16.9141928 14.4404739,15.6153976 14.5355743,14.1268032 C14.5355743,14.1268032 14.1443293,9.29893173 10.9794297,8.44431325" id="Fill-5"></path>
                <path d="M4.08363855,11.5231888 C3.96516466,10.3986908 2.95737349,9.58342972 1.83303614,9.70190361 C0.708618474,9.82037751 -0.106963855,10.8276064 0.0114297189,11.9521044 C0.129823293,13.0766024 1.13761446,13.8918635 2.26195181,13.7734699 C3.38636948,13.654996 4.20203213,12.6475261 4.08363855,11.5231888" id="Fill-8"></path>
                <path d="M4.08363855,11.5231888 C3.96516466,10.3986908 2.95737349,9.58342972 1.83303614,9.70190361 C0.708618474,9.82037751 -0.106963855,10.8276064 0.0114297189,11.9521044 C0.129823293,13.0766024 1.13761446,13.8918635 2.26195181,13.7734699 C3.38636948,13.654996 4.20203213,12.6475261 4.08363855,11.5231888" id="Fill-10"></path>
            </g>
            <rect id="Rectangle-22-Copy-2" x="0" y="0" width="30" height="30"></rect>
        </g>
    </g>
</svg>