<?xml version="1.0" encoding="UTF-8"?>
<svg width="19px" height="20px" viewBox="0 0 19 20" version="1.1" xmlns="http://www.w3.org/2000/svg" xmlns:xlink="http://www.w3.org/1999/xlink">
    <!-- Generator: Sketch 46.2 (44496) - http://www.bohemiancoding.com/sketch -->
    <title>Group 80</title>
    <desc>Created with Sketch.</desc>
    <defs></defs>
    <g id="live" stroke="none" stroke-width="1" fill="none" fill-rule="evenodd">
        <g id="Group-80" transform="translate(-6.000000, -5.000000)">
            <g id="Page-1-Copy-18" transform="translate(6.000000, 5.000000)">
                <path d="M18.0661935,10.0067312 C18.0661935,12.6910323 18.0715699,15.3755484 18.063828,18.0598495 C18.060172,19.3663011 17.6418925,19.7832903 16.3287742,19.7847957 C11.4610323,19.789957 6.59350538,19.7903871 1.72576344,19.7845806 C0.418666667,19.7828602 0.00490322581,19.3647957 0.00382795699,18.0484516 C-0.00111827957,12.6080215 -0.00133333333,7.1675914 0.00382795699,1.72737634 C0.00511827957,0.416408602 0.419526882,0.00544086022 1.7375914,0.00393548387 C6.60511828,-0.00122580645 11.4728602,-0.00144086022 16.3406022,0.00415053763 C17.647914,0.00565591398 18.0608172,0.423505376 18.064043,1.73898925 C18.0709247,4.49490323 18.0661935,7.2508172 18.0661935,10.0067312" id="Fill-1" fill="#F5A623"></path>
                <path d="M5.59286022,10.311871 C5.59286022,8.66778495 5.61243011,7.02326882 5.58146237,5.3796129 C5.57156989,4.86606452 5.71780645,4.70843011 6.23651613,4.72133333 C7.70103226,4.75746237 9.16877419,4.69574194 10.632,4.75294624 C12.5066237,4.82606452 13.6268387,6.07810753 13.6068387,7.97316129 C13.5864086,9.87746237 12.4657634,11.0901505 10.5883441,11.1682151 C9.4464086,11.215957 8.30017204,11.2107957 7.15780645,11.1725161 C6.60490323,11.1540215 6.41522581,11.304129 6.44017204,11.8785376 C6.48683871,12.9488602 6.47243011,14.0232688 6.44167742,15.0944516 C6.43264516,15.4088602 6.71651613,15.9464946 5.99049462,15.920043 C5.34984946,15.8966022 5.60898925,15.4209032 5.60468817,15.1370323 C5.5803871,13.5290753 5.59286022,11.9202581 5.59286022,10.311871 Z M6.4536129,7.89124731 C6.45382796,8.53339785 6.46651613,9.17619355 6.44866667,9.81791398 C6.4392043,10.1615699 6.5164086,10.3398495 6.91404301,10.3308172 C8.12651613,10.3030753 9.34522581,10.3759785 10.5510323,10.2792043 C11.8512473,10.1744731 12.6490968,9.15683871 12.6123226,7.85253763 C12.5766237,6.5875914 11.7824301,5.73662366 10.4733978,5.61834409 C9.90673118,5.56694624 9.33253763,5.59468817 8.76178495,5.59425806 C6.4536129,5.59232258 6.4536129,5.59339785 6.4536129,7.89124731 Z" id="Combined-Shape" fill="#FDFDFD"></path>
            </g>
            <rect id="Rectangle-22-Copy-9" x="0" y="0" width="30" height="30"></rect>
        </g>
    </g>
</svg>