<?xml version="1.0" encoding="UTF-8"?>
<svg width="20px" height="20px" viewBox="0 0 20 20" version="1.1" xmlns="http://www.w3.org/2000/svg" xmlns:xlink="http://www.w3.org/1999/xlink">
    <!-- Generator: Sketch 46.2 (44496) - http://www.bohemiancoding.com/sketch -->
    <title>Group 84</title>
    <desc>Created with Sketch.</desc>
    <defs></defs>
    <g id="live" stroke="none" stroke-width="1" fill="none" fill-rule="evenodd">
        <g id="Group-84" transform="translate(-5.000000, -5.000000)">
            <path d="M22.2351649,13.3554481 C21.2109261,14.4368374 20.1128193,15.4482465 19.0829432,16.5245817 C18.7256551,16.8981985 18.5229067,16.8945051 18.1673682,16.5228322 C16.895477,15.1932073 15.5880126,13.897795 14.2480851,12.5430939 C12.9606428,13.8476425 11.7342388,15.0940686 10.5035583,16.3362182 C9.30747909,17.5433776 8.10654016,18.7456772 6.812683,20.0459492 C6.47736094,18.3765314 7.06966604,17.1369089 8.05424936,16.121612 C10.8278001,13.2615579 13.6437278,10.4413536 16.4837599,7.64700315 C18.0750331,6.08100055 20.6122061,6.13290257 22.1640183,7.67207941 C23.7101931,9.20561894 23.7617064,11.7433751 22.2351649,13.3554481 M20.1934909,5.00019439 C19.6002139,5 19.0071312,5 18.4138542,5 C17.0933656,5.13004664 16.0508542,5.80418976 15.1403334,6.70868456 C12.2968023,9.53355419 9.45774225,12.3628948 6.62820727,15.2017605 C5.74392899,16.089149 5.12615885,17.1295221 5,18.4103552 C5.00116634,19.0038266 5.00213829,19.5971037 5.00330462,20.1905751 C5.33804351,22.366961 6.59496665,23.8417949 8.60573264,24.5948602 C10.7469341,25.3967173 12.78958,25.0096876 14.4312001,23.4213302 C17.4706758,20.4802156 20.4302575,17.4560966 23.4003361,14.4438354 C24.2568167,13.5751083 24.781863,12.511214 24.8876109,11.2706196 L24.8883885,9.83777391 C24.5569542,7.29301969 22.6828441,5.36175904 20.1934909,5.00019439" id="Fill-9-Copy" fill="#F5A623"></path>
            <rect id="Rectangle-22-Copy-4" x="0" y="0" width="30" height="30"></rect>
        </g>
    </g>
</svg>