<?xml version="1.0" encoding="UTF-8"?>
<svg width="17px" height="19px" viewBox="0 0 17 19" version="1.1" xmlns="http://www.w3.org/2000/svg" xmlns:xlink="http://www.w3.org/1999/xlink">
    <!-- Generator: Sketch 46.2 (44496) - http://www.bohemiancoding.com/sketch -->
    <title>Group 79</title>
    <desc>Created with Sketch.</desc>
    <defs></defs>
    <g id="live" stroke="none" stroke-width="1" fill="none" fill-rule="evenodd">
        <g id="Group-79" transform="translate(-7.000000, -6.000000)">
            <g id="Group-43" transform="translate(7.000000, 6.000000)" fill="#9B9B9B">
                <path d="M2.02730852,18.2251963 C1.85028659,16.5049108 1.66390209,14.7854921 1.50369811,13.0634727 C1.4711025,12.7132432 1.28922591,12.5747119 1.00037328,12.4533452 C0.369613463,12.1887659 0.107114737,11.6901224 0.116824069,11.0113361 C0.132081591,9.94330954 0.101566548,8.87476288 0.126186639,7.80742988 C0.162076492,6.25809791 1.33309128,5.10234064 2.88346354,5.04980622 C2.96998062,5.04685875 3.05719123,5.05500765 3.14336155,5.04737889 C6.03102091,4.79198878 7.30120959,6.25705762 7.06246405,8.91134625 C7.01357063,9.4554156 7.02952167,10.0090209 7.06125038,10.555691 C7.11239776,11.4343855 6.92479959,12.1636257 6.01593677,12.5230444 C5.81238756,12.6034931 5.70558491,12.7472259 5.68269862,12.9776492 C5.50966446,14.7274095 5.32761448,16.4761295 5.14816522,18.2251963 L2.02730852,18.2251963 Z" id="Fill-4"></path>
                <path d="M11.2164977,18.2251963 C11.0913167,16.9029934 10.9347537,15.582871 10.8541316,14.2578939 C10.8132137,13.5853493 10.560771,13.2619939 9.88944008,13.0861856 C8.42367772,12.7024936 8.43460071,12.6622693 8.8319898,11.2122845 C9.22799184,9.76784804 9.61792555,8.32167772 10.0199959,6.87897501 C10.4024742,5.50614482 11.0708577,5.04564508 12.6465436,5.04824579 C14.1344987,5.05067313 14.8151922,5.53232534 15.1862274,6.87949516 C15.6683998,8.62890872 16.1150291,10.3883784 16.6226884,12.1303366 C16.7513371,12.5722845 16.6936012,12.8054819 16.2412504,12.838771 C14.6901846,12.9523355 14.2093993,13.8348445 14.2648812,15.2969658 C14.3018113,16.2682458 14.0906334,17.2487149 13.9905926,18.2251963 L11.2164977,18.2251963 Z" id="Fill-6"></path>
                <circle id="Oval-7" cx="12.6568078" cy="2.08057114" r="2.08057114"></circle>
                <circle id="Oval-7-Copy" cx="3.60891984" cy="2.08057114" r="2.08057114"></circle>
            </g>
            <rect id="Rectangle-22-Copy-15" x="0" y="0" width="30" height="30"></rect>
        </g>
    </g>
</svg>