<?xml version="1.0" encoding="UTF-8"?>
<svg width="15px" height="20px" viewBox="0 0 15 20" version="1.1" xmlns="http://www.w3.org/2000/svg" xmlns:xlink="http://www.w3.org/1999/xlink">
    <!-- Generator: Sketch 46.2 (44496) - http://www.bohemiancoding.com/sketch -->
    <title>Group 82</title>
    <desc>Created with Sketch.</desc>
    <defs></defs>
    <g id="live" stroke="none" stroke-width="1" fill="none" fill-rule="evenodd">
        <g id="Group-82" transform="translate(-8.000000, -5.000000)">
            <path d="M19.4723767,25 L11.0723767,25 C10.3563767,24.8216 10.0581767,24.328 10.0007767,23.626 C9.61577667,18.924 9.16457667,14.2278 8.77317667,9.5264 C8.72557667,8.9542 8.62417667,8.4308 8.26217667,7.9456 C7.78877667,7.3112 7.96177667,6.9024 8.73817667,6.7652 C9.49357667,6.6316 10.2649767,6.7028 11.0287767,6.7086 C11.6497767,6.7134 12.1443767,6.6004 12.2889767,5.8818 C12.3941767,5.3602 12.8151767,5.1502 13.2723767,5 L17.2723767,5 C17.7761767,5.1538 18.1729767,5.4254 18.2915767,5.9754 C18.4129767,6.5376 18.7913767,6.6994 19.3163767,6.7026 C20.0809767,6.7074 20.8487767,6.6544 21.6097767,6.7364 C22.5709767,6.84 22.7727767,7.2542 22.2225767,8.0256 C21.8925767,8.4884 21.8175767,8.9912 21.7725767,9.5264 C21.3791767,14.2278 20.9289767,18.924 20.5439767,23.626 C20.4865767,24.328 20.1883767,24.8216 19.4723767,25 Z M12.4723767,15.89844 C12.4723767,17.99724 12.4703767,20.09604 12.4745767,22.19484 C12.4751767,22.51504 12.3963767,22.95684 12.8709767,22.95784 C13.3457767,22.95904 13.2701767,22.51804 13.2703767,22.19724 C13.2733767,18.06624 13.2733767,13.93524 13.2703767,9.80424 C13.2701767,9.48384 13.3477767,9.04304 12.8729767,9.04144 C12.3957767,9.04004 12.4753767,9.48224 12.4745767,9.80204 C12.4701767,11.83404 12.4723767,13.86624 12.4723767,15.89844 Z M14.8723767,16.0001 C14.8723767,18.0657 14.8703767,20.1311 14.8745767,22.1965 C14.8751767,22.5169 14.7971767,22.9585 15.2725767,22.9579 C15.7467767,22.9571 15.6701767,22.5161 15.6703767,22.1955 C15.6733767,18.0645 15.6733767,13.9335 15.6703767,9.8025 C15.6701767,9.4821 15.7469767,9.0411 15.2713767,9.0415 C14.7949767,9.0419 14.8753767,9.4839 14.8745767,9.8037 C14.8701767,11.8691 14.8723767,13.9347 14.8723767,16.0001 Z M17.2723767,15.89864 C17.2723767,17.99744 17.2703767,20.09624 17.2745767,22.19504 C17.2751767,22.51524 17.1963767,22.95704 17.6711767,22.95784 C18.1459767,22.95884 18.0701767,22.51764 18.0703767,22.19704 C18.0733767,18.06604 18.0733767,13.93504 18.0703767,9.80404 C18.0701767,9.48364 18.1475767,9.04264 17.6727767,9.04144 C17.1957767,9.04024 17.2753767,9.48244 17.2745767,9.80224 C17.2701767,11.83444 17.2723767,13.86644 17.2723767,15.89864 Z M15.2902367,7.0001 C15.7526367,7.0001 16.2152367,6.9907 16.6772367,7.0031 C17.0294367,7.0125 17.3266367,7.0307 17.2838367,6.5113 C17.2500367,6.1007 17.1930367,5.7949 16.6906367,5.7985 C15.7658367,5.8055 14.8408367,5.8137 13.9164367,5.7953 C13.3670367,5.7843 13.2824367,6.0841 13.2602367,6.5479 C13.2334367,7.1045 13.5916367,6.9959 13.9030367,6.9989 C14.3654367,7.0035 14.8278367,7.0001 15.2902367,7.0001 Z" id="Combined-Shape-Copy" fill="#F5A623"></path>
            <rect id="Rectangle-22-Copy-13" x="0" y="0" width="30" height="30"></rect>
        </g>
    </g>
</svg>