<?xml version="1.0" encoding="UTF-8"?>
<svg width="22px" height="22px" viewBox="0 0 22 22" version="1.1" xmlns="http://www.w3.org/2000/svg" xmlns:xlink="http://www.w3.org/1999/xlink">
    <!-- Generator: Sketch 43.2 (39069) - http://www.bohemiancoding.com/sketch -->
    <title>neutral</title>
    <desc>Created with Sketch.</desc>
    <defs>
        <path d="M3,19.9 C1.4,19.9 0.1,18.6 0.1,17 L0.1,3 C0.1,1.4 1.4,0.1 3,0.1 L17,0.1 C18.6,0.1 19.9,1.4 19.9,3 L19.9,17 C19.9,18.6 18.6,19.9 17,19.9 L3,19.9 Z" id="path-1"></path>
        <filter x="-5.1%" y="-2.5%" width="110.1%" height="110.1%" filterUnits="objectBoundingBox" id="filter-2">
            <feOffset dx="0" dy="0.5" in="SourceAlpha" result="shadowOffsetOuter1"></feOffset>
            <feGaussianBlur stdDeviation="0.25" in="shadowOffsetOuter1" result="shadowBlurOuter1"></feGaussianBlur>
            <feComposite in="shadowBlurOuter1" in2="SourceAlpha" operator="out" result="shadowBlurOuter1"></feComposite>
            <feColorMatrix values="0 0 0 0 0   0 0 0 0 0   0 0 0 0 0  0 0 0 0.5 0" type="matrix" in="shadowBlurOuter1"></feColorMatrix>
        </filter>
    </defs>
    <g id="Page-1" stroke="none" stroke-width="1" fill="none" fill-rule="evenodd">
        <g id="neutral" transform="translate(1.000000, 0.000000)" fill-rule="nonzero">
            <g id="neutral_emotion">
                <g id="Shape">
                    <use fill="black" fill-opacity="1" filter="url(#filter-2)" xlink:href="#path-1"></use>
                    <use fill="#FFFFFF" fill-rule="evenodd" xlink:href="#path-1"></use>
                    <path stroke="#9B9B9B" stroke-width="0.1" d="M3,19.85 C1.42761424,19.85 0.15,18.5723858 0.15,17 L0.15,3 C0.15,1.42761424 1.42761424,0.15 3,0.15 L17,0.15 C18.5723858,0.15 19.85,1.42761424 19.85,3 L19.85,17 C19.85,18.5723858 18.5723858,19.85 17,19.85 L3,19.85 Z"></path>
                </g>
                <g id="Group" transform="translate(2.000000, 6.000000)" fill="#333333">
                    <rect id="Rectangle-path" x="0.5" y="0.8" width="3.3" height="1"></rect>
                    <rect id="Rectangle-path" x="12.2" y="0.8" width="3.3" height="1"></rect>
                    <rect id="Rectangle-path" x="2" y="6" width="12.2" height="1.2"></rect>
                </g>
            </g>
        </g>
    </g>
</svg>