<?xml version="1.0" encoding="utf-8"?>
<!-- Generator: Adobe Illustrator 21.1.0, SVG Export Plug-In . SVG Version: 6.00 Build 0)  -->
<svg version="1.1" id="圖層_1" xmlns="http://www.w3.org/2000/svg" xmlns:xlink="http://www.w3.org/1999/xlink" x="0px" y="0px"
	 viewBox="0 0 56 24" style="enable-background:new 0 0 56 24;" xml:space="preserve">
<style type="text/css">
	.st0{fill:#FFFFFF;}
	.st1{fill:#323333;}
	.st2{fill:#333333;}
	.st3{fill:none;}
</style>
<g>
	<g>
		<g>
			<path class="st0" d="M5.4,19.9c-1.6,0-2.9-1.3-2.9-2.9V3c0-1.6,1.3-2.9,2.9-2.9h14c1.6,0,2.9,1.3,2.9,2.9v14
				c0,1.6-1.3,2.9-2.9,2.9H5.4z"/>
			<path class="st1" d="M19.5,0.2c1.5,0,2.8,1.2,2.8,2.8v14c0,1.5-1.2,2.8-2.8,2.8h-14c-1.5,0-2.8-1.2-2.8-2.8V3
				c0-1.5,1.2-2.8,2.8-2.8L19.5,0.2 M19.5,0h-14c-1.6,0-3,1.3-3,3v14c0,1.7,1.3,3,3,3h14c1.7,0,3-1.3,3-3V3C22.5,1.3,21.2,0,19.5,0
				L19.5,0z"/>
		</g>
		<g>
			<g>
				<rect x="4.9" y="6.8" class="st2" width="3.3" height="0.7"/>
			</g>
			<g>
				<rect x="16.6" y="6.8" class="st2" width="3.3" height="0.7"/>
			</g>
			<g>
				<rect x="6.4" y="12.1" class="st2" width="12.2" height="1.2"/>
			</g>
		</g>
	</g>
	<rect x="2.5" class="st3" width="53.6" height="20"/>
</g>
</svg>
