<?xml version="1.0" encoding="UTF-8"?>
<svg width="20px" height="20px" viewBox="0 0 20 20" version="1.1" xmlns="http://www.w3.org/2000/svg" xmlns:xlink="http://www.w3.org/1999/xlink">
    <!-- Generator: Sketch 46.2 (44496) - http://www.bohemiancoding.com/sketch -->
    <title>Group 101</title>
    <desc>Created with Sketch.</desc>
    <defs>
        <linearGradient x1="0%" y1="0%" x2="100%" y2="100%" id="linearGradient-1">
            <stop stop-color="#FBD249" offset="0%"></stop>
            <stop stop-color="#EA8D05" offset="100%"></stop>
        </linearGradient>
    </defs>
    <g id="live" stroke="none" stroke-width="1" fill="none" fill-rule="evenodd">
        <g id="Group-101" transform="translate(-5.000000, -5.000000)">
            <path d="M19.194964,14.2579809 C18.1471996,13.7156403 17.1849031,13.2988167 16.3214986,12.7314175 C15.9666504,12.4985064 15.5815975,11.9118657 15.6270163,11.5364335 C15.8597037,9.62168491 16.1805438,7.71320094 16.5942351,5.82955187 C16.6687398,5.49126022 17.2491158,4.91356906 17.710687,5.01089503 C18.1950795,5.11336697 18.481464,5.88727624 18.4362689,6.2752377 C18.2655569,7.7443005 17.9136173,9.19233195 17.6028454,10.7844506 C18.8687542,11.4200899 20.150101,12.066916 21.4341326,12.7081487 C23.2249304,13.6022052 23.6701688,14.5226628 22.9676319,16.4067594 C21.7643696,19.6328356 19.7858557,22.1612972 16.3986882,23.37597 C11.48093,25.1394719 13.2536051,25.2638701 8.79920795,22.6785791 C7.70602475,22.0442823 6.59046777,21.4328067 5.57626403,20.6868647 C5.23014156,20.4324747 4.90997268,19.7194222 5.02318404,19.354282 C5.23730117,18.6647219 5.9022501,18.6991775 6.51708175,18.9976438 C8.22129305,19.8248027 9.94161348,20.6197433 11.6312818,21.4748694 C12.2275432,21.7766918 12.6850872,21.7545418 13.2621071,21.3976799 C16.015649,19.6957059 18.2516852,17.5872003 19.194964,14.2579809 Z M15.1825387,19.0482533 C14.2945231,19.6395925 13.4499127,20.3237829 12.493657,20.7681263 C12.190716,20.9084099 11.5141327,20.4987459 11.1398192,20.1846179 C9.97034142,19.202185 8.81563031,18.1906661 7.76495731,17.0860723 C7.49222085,16.799464 7.23223745,16.0078795 7.56381697,15.6393832 C7.89539648,15.270887 8.63820618,15.4854516 9.03153735,15.6877106 C9.68082463,16.0215275 10.2153344,16.5817671 10.789222,17.0574338 C12.0128444,18.0714138 13.1532363,19.2813882 15.0847652,18.5616235 C15.117431,18.7238334 15.149873,18.8860434 15.1825387,19.0482533 Z M22.6102554,12.1536816 C21.3570996,12.0823092 20.451185,11.0278326 20.5362054,9.73955002 C20.6187647,8.49243517 21.6891266,7.59479886 22.975843,7.69436221 C24.1757492,7.78721343 25.055039,8.81148536 24.9973146,10.049427 C24.9386953,11.3059388 23.8940632,12.2268438 22.6102554,12.1536816 Z" id="Combined-Shape" fill="url(#linearGradient-1)"></path>
            <rect id="Rectangle-17-Copy-3" x="0" y="0" width="30" height="30"></rect>
        </g>
    </g>
</svg>