<?xml version="1.0" encoding="UTF-8"?>
<svg width="22px" height="22px" viewBox="0 0 22 22" version="1.1" xmlns="http://www.w3.org/2000/svg" xmlns:xlink="http://www.w3.org/1999/xlink">
    <!-- Generator: Sketch 46.2 (44496) - http://www.bohemiancoding.com/sketch -->
    <title>Group 98</title>
    <desc>Created with Sketch.</desc>
    <defs></defs>
    <g id="live" stroke="none" stroke-width="1" fill="none" fill-rule="evenodd">
        <g id="Group-98" transform="translate(-4.000000, -4.000000)">
            <g id="Page-1" transform="translate(5.000000, 5.000000)" stroke="#3F3A3A">
                <path d="M3.54910811,4.13516216 L6.31532432,4.13516216 C6.31532432,4.13516216 7.51586486,2.01450585 9.89072973,2.01450585 C12.2655946,2.01450585 13.5704595,4.13516216 13.5704595,4.13516216 L16.0237027,4.13516216 C16.0237027,4.13516216 14.5988378,0.135162162 9.83072973,0.135162162 C5.06289189,0.135162162 3.54910811,4.13516216 3.54910811,4.13516216 Z" id="Stroke-1"></path>
                <path d="M8.75378378,13.1050811 L10.9116216,13.1050811 L10.9116216,10.9472432 L8.75378378,10.9472432 L8.75378378,13.1050811 Z M17.3283784,5.45886486 L2.24432432,5.45886486 L0.156486486,19.6558919 L19.6251351,19.6558919 L17.3283784,5.45886486 Z" id="Stroke-3"></path>
            </g>
            <rect id="Rectangle-17-Copy-8" x="0" y="0" width="30" height="30"></rect>
        </g>
    </g>
</svg>