<?xml version="1.0" encoding="UTF-8"?>
<svg width="20px" height="18px" viewBox="0 0 20 18" version="1.1" xmlns="http://www.w3.org/2000/svg" xmlns:xlink="http://www.w3.org/1999/xlink">
    <!-- Generator: Sketch 46.2 (44496) - http://www.bohemiancoding.com/sketch -->
    <title>Group 102</title>
    <desc>Created with Sketch.</desc>
    <defs>
        <linearGradient x1="0%" y1="0%" x2="100%" y2="100%" id="linearGradient-1">
            <stop stop-color="#FBD249" offset="0%"></stop>
            <stop stop-color="#EA8D05" offset="100%"></stop>
        </linearGradient>
    </defs>
    <g id="live" stroke="none" stroke-width="1" fill="none" fill-rule="evenodd">
        <g id="Group-102" transform="translate(-5.000000, -6.000000)">
            <g id="Group-95" transform="translate(5.000000, 6.000000)">
                <path d="M2.43668273,17.9779383 C2.9007498,17.0152788 3.36526699,16.1427893 3.72783345,15.2343165 C3.81785616,15.0091033 3.67652051,14.5533852 3.47329424,14.3963286 C0.763835714,12.3014648 -0.643219248,9.69860129 0.285815122,6.40189482 C1.22632739,3.06433672 3.81200468,1.19045278 7.26122483,0.36304825 C10.639102,-0.447422957 13.82208,0.0870350731 16.604907,2.08770727 C21.2359003,5.41722205 21.1051423,11.303457 16.3607204,14.4835352 C13.9906475,16.0723043 11.3243999,16.5894057 8.43737154,16.2905325 C7.94629766,16.2397326 7.32806669,16.4251525 6.91711302,16.699049 C5.5696981,17.5965151 4.1378869,18.1159448 2.43668273,17.9779383" id="Fill-1" fill="url(#linearGradient-1)"></path>
                <circle id="Oval-8" fill="#FFFFFF" cx="10" cy="9" r="1"></circle>
                <circle id="Oval-8" fill="#FFFFFF" cx="6" cy="9" r="1"></circle>
                <circle id="Oval-8" fill="#FFFFFF" cx="14" cy="9" r="1"></circle>
            </g>
            <rect id="Rectangle-17-Copy-4" x="0" y="0" width="30" height="30"></rect>
        </g>
    </g>
</svg>