<?xml version="1.0" encoding="UTF-8"?>
<svg width="22px" height="22px" viewBox="0 0 22 22" version="1.1" xmlns="http://www.w3.org/2000/svg" xmlns:xlink="http://www.w3.org/1999/xlink">
    <!-- Generator: Sketch 46.2 (44496) - http://www.bohemiancoding.com/sketch -->
    <title>Group 48</title>
    <desc>Created with Sketch.</desc>
    <defs></defs>
    <g id="live" stroke="none" stroke-width="1" fill="none" fill-rule="evenodd">
        <g id="Group-48" transform="translate(-4.000000, -4.000000)">
            <g id="Group-45" transform="translate(5.000000, 5.000000)" stroke="#4A4A4A">
                <path d="M5.17610916,6.47357505 C3.31306823,4.71033918 3.84534893,2.38156725 4.81014425,1.35022222 C5.6085848,0.485270955 6.50683041,0.0195009747 7.47162573,0.0195009747 C8.46967641,0.0195009747 9.40117739,0.585037037 9.96675244,1.54983236 C10.5655828,0.585076023 11.4638285,0.0195009747 12.4951345,0.0195009747 C13.4599298,0.0195009747 14.3914308,0.485270955 15.156616,1.35026121 C16.088117,2.38156725 16.6203977,4.71033918 14.7906511,6.47357505 C13.9922105,7.27201559 10.2328733,11.1644133 10.1996179,11.1976686 L10.0000078,11.4638285 L9.7671423,11.1976686 C9.73388694,11.1644133 6.00780507,7.23876023 5.17610916,6.47357505 Z M19.7808967,12.2289747 C20.0803119,12.6281949 20.0137622,13.2270253 19.6145029,13.5596959 L14.5909942,17.5518986 C14.2583236,17.8513138 13.8923587,18.050924 13.4931384,18.1174737 C13.360039,18.150768 13.1937232,18.1840234 13.0273684,18.1840234 L8.70249513,18.8493645 C8.037154,18.8826589 7.33851852,18.9492086 6.6731384,18.9492086 L2.34826511,18.9492086 L2.34826511,19.9472593 L0.0194931774,19.9472593 L0.0194931774,11.2975127 L2.34830409,11.2975127 L2.34830409,11.9944327 C3.26292398,11.4101053 5.14007797,10.4304561 6.34050682,11.330768 C6.87278752,11.7299883 7.53816764,11.9295984 8.23680312,11.9295984 L9.53426901,11.9295984 C10.4990643,11.9295984 11.3973099,12.3953294 11.9295906,13.1605146 C12.2290058,13.5929903 12.2955556,13.9589552 12.1292008,14.2583704 C12.9608967,14.2583704 13.8591423,14.1918207 14.2583626,13.9589552 L17.1194152,12.1957193 C18.5832359,11.4305341 19.1820663,11.4305341 19.7808967,12.2289747 Z" id="Combined-Shape"></path>
            </g>
            <rect id="Rectangle-17" x="0" y="0" width="30" height="30"></rect>
        </g>
    </g>
</svg>