<?xml version="1.0" encoding="UTF-8"?>
<svg width="20px" height="20px" viewBox="0 0 20 20" version="1.1" xmlns="http://www.w3.org/2000/svg" xmlns:xlink="http://www.w3.org/1999/xlink">
    <!-- Generator: Sketch 46.2 (44496) - http://www.bohemiancoding.com/sketch -->
    <title>Group 100</title>
    <desc>Created with Sketch.</desc>
    <defs>
        <linearGradient x1="0%" y1="0%" x2="100%" y2="100%" id="linearGradient-1">
            <stop stop-color="#FBD249" offset="0%"></stop>
            <stop stop-color="#EA8D05" offset="100%"></stop>
        </linearGradient>
    </defs>
    <g id="live" stroke="none" stroke-width="1" fill="none" fill-rule="evenodd">
        <g id="Group-100" transform="translate(-5.000000, -5.000000)">
            <g id="Group-46" transform="translate(5.000000, 5.000000)" fill="url(#linearGradient-1)">
                <path d="M5.15301227,6.46667969 C3.28633259,4.7 3.8196529,2.36667969 4.78633259,1.33332031 C5.58633259,0.466679687 6.48633259,0 7.45301227,0 C8.45301227,0 9.38633259,0.566640625 9.95301227,1.53332031 C10.5530123,0.566679687 11.4530123,0 12.4863326,0 C13.4530123,0 14.3863326,0.466679687 15.1530123,1.33335937 C16.0863326,2.36667969 16.6196529,4.7 14.7863326,6.46667969 C13.9863326,7.26667969 10.2196529,11.1666797 10.1863326,11.2 L9.98633259,11.4666797 L9.75301227,11.2 C9.71969196,11.1666797 5.98633259,7.23335938 5.15301227,6.46667969 Z M19.8,12.2026228 C20.1,12.6026228 20.0333203,13.2026228 19.6332812,13.5359431 L14.5999609,17.5359431 C14.2666406,17.8359431 13.8999609,18.0359431 13.4999609,18.1026228 C13.3666016,18.1359822 13.1999609,18.1693025 13.0332812,18.1693025 L8.69996094,18.8359431 C8.03332031,18.8693025 7.33332031,18.9359822 6.66664063,18.9359822 L2.33332031,18.9359822 L2.33332031,19.9359822 L0,19.9359822 L0,11.2693416 L2.33335938,11.2693416 L2.33335938,11.9676228 C3.24976562,11.3821541 5.13058594,10.4005916 6.33335937,11.3026619 C6.86667969,11.7026619 7.53335937,11.9026619 8.23335937,11.9026619 L9.53335937,11.9026619 C10.5000391,11.9026619 11.4000391,12.3693025 11.9333594,13.1359822 C12.2333594,13.5693025 12.3000391,13.9359822 12.1333594,14.2359822 C12.9666797,14.2359822 13.8666797,14.1693025 14.2666797,13.9359822 L17.1333203,12.1693025 C18.6,11.4026228 19.2,11.4026228 19.8,12.2026228 Z" id="Combined-Shape"></path>
            </g>
            <rect id="Rectangle-17-Copy" x="0" y="0" width="30" height="30"></rect>
        </g>
    </g>
</svg>